<svg width="1140" height="329" viewBox="0 0 1140 329" fill="none" xmlns="http://www.w3.org/2000/svg">
<g clip-path="url(#clip0_83479_2973)">
<rect width="1140" height="329" rx="4" fill="#EAF9FF"/>
<g opacity="0.2">
<mask id="mask0_83479_2973" style="mask-type:luminance" maskUnits="userSpaceOnUse" x="840" y="0" width="300" height="300">
<path d="M1140 300H840V0H1140V300Z" fill="white"/>
</mask>
<g mask="url(#mask0_83479_2973)">
<g opacity="0.3">
<path fill-rule="evenodd" clip-rule="evenodd" d="M1424.73 146.04C1423.23 148.11 1420.35 148.56 1418.28 147.06C1417.47 146.49 1416.9 145.68 1416.63 144.81L1352.82 161.82C1352.72 161.98 1352.62 162.13 1352.52 162.27C1352.13 162.84 1351.62 163.26 1351.05 163.59L1399.95 264.66C1401.39 264.06 1403.07 264.21 1404.42 265.2C1406.49 266.7 1406.94 269.58 1405.44 271.65C1403.94 273.72 1401.03 274.17 1398.99 272.67C1398.12 272.04 1397.55 271.2 1397.28 270.24L1321.38 287.55C1321.56 288.72 1321.32 289.98 1320.54 291C1319.55 292.38 1317.93 293.04 1316.34 292.89L1307.22 347.55C1307.82 347.7 1308.36 347.94 1308.9 348.33C1310.97 349.83 1311.42 352.74 1309.92 354.78C1308.42 356.85 1305.51 357.33 1303.44 355.8C1302.15 354.87 1301.49 353.4 1301.55 351.9L1240.41 345.75C1240.29 346.44 1240.02 347.1 1239.57 347.7C1238.22 349.59 1235.67 350.13 1233.66 349.08L1202.88 403.92C1202.9 403.94 1202.92 403.95 1202.94 403.95C1205.01 405.45 1205.46 408.36 1203.96 410.43C1202.46 412.5 1199.55 412.95 1197.48 411.45C1197.1 411.15 1196.77 410.81 1196.49 410.43L1156.05 434.7C1156.83 436.23 1156.77 438.09 1155.69 439.56C1154.19 441.63 1151.31 442.08 1149.24 440.58C1147.17 439.08 1146.72 436.23 1148.16 434.16L1100.85 395.91C1099.26 397.5 1096.71 397.74 1094.85 396.39C1092.78 394.89 1092.33 391.98 1093.83 389.94C1094.22 389.37 1094.73 388.95 1095.27 388.62L1042.59 271.17C1041.18 271.71 1039.56 271.53 1038.24 270.6C1036.17 269.07 1035.72 266.19 1037.22 264.12C1038.72 262.05 1041.63 261.6 1043.7 263.1C1044.54 263.73 1045.11 264.6 1045.41 265.53L1155.57 240.84C1155.55 240.62 1155.54 240.39 1155.54 240.15L1106.43 235.89C1106.31 236.52 1106.04 237.15 1105.65 237.72C1104.15 239.79 1101.24 240.24 1099.17 238.74C1097.1 237.24 1096.65 234.33 1098.15 232.26L1097.97 232.5L982.29 134.79C980.73 136.41 978.15 136.68 976.26 135.33C975.24 134.58 974.64 133.56 974.43 132.42L911.61 140.07C911.67 141.09 911.37 142.17 910.71 143.07C909.21 145.11 906.33 145.59 904.26 144.09C902.19 142.56 901.74 139.68 903.24 137.61C903.84 136.77 904.71 136.2 905.61 135.93L883.53 42.9001C882.33 43.1101 881.07 42.8401 880.02 42.0901C877.95 40.5901 877.5 37.6801 879 35.6101C879.66 34.7101 880.59 34.1401 881.58 33.8701L870.36 -23.5799C869.22 -23.4299 868.05 -23.6999 867.03 -24.4199C864.96 -25.9199 864.51 -28.7999 866.01 -30.8699C867.54 -32.9399 870.42 -33.3899 872.49 -31.8899C873.78 -30.9599 874.44 -29.4599 874.38 -27.9599L942.54 -18.1199C942.69 -18.7199 942.93 -19.3499 943.35 -19.8899C944.85 -21.9599 947.73 -22.4099 949.8 -20.9099C950 -20.7499 950.19 -20.5799 950.37 -20.3999L1009.44 -71.4899C1008.24 -73.0799 1008.15 -75.3299 1009.38 -77.0099C1010.88 -79.0799 1013.79 -79.5299 1015.86 -78.0299C1017.93 -76.5299 1018.38 -73.6199 1016.88 -71.5799C1016.34 -70.8599 1015.68 -70.3499 1014.93 -70.0199L1042.38 9.4501C1043.7 9.0601 1045.2 9.2401 1046.4 10.1401C1047.93 11.2501 1048.56 13.0801 1048.2 14.8201L1138.62 38.0701C1138.76 37.6101 1138.98 37.1801 1139.28 36.7801C1140.78 34.7101 1143.69 34.2601 1145.73 35.7601C1147.8 37.2601 1148.28 40.1701 1146.75 42.2401C1146.59 42.4601 1146.42 42.6601 1146.24 42.8401L1190.49 95.3101C1192.05 94.1401 1194.27 94.0801 1195.95 95.2801C1196.82 95.9101 1197.39 96.7801 1197.66 97.7401L1282.59 78.7201L1282.08 78.0901L1283.19 78.6001L1283.55 78.5101L1283.49 78.7501L1416.96 141.09C1417.04 140.93 1417.14 140.77 1417.26 140.61C1418.76 138.54 1421.67 138.09 1423.71 139.59C1425.78 141.09 1426.26 143.97 1424.73 146.04ZM1272.51 129.57L1344.57 157.62C1344.71 157.34 1344.86 157.08 1345.02 156.84C1345.2 156.6 1345.4 156.38 1345.62 156.18L1283.31 79.5901L1272.51 129.57ZM1318.95 278.43L1347.36 163.98C1347.02 163.86 1346.69 163.71 1346.37 163.53L1346.16 163.59L1261.95 282.24C1262.82 282.96 1263.39 283.95 1263.57 285L1318.95 278.43ZM1262.79 288.57C1262.55 288.89 1262.28 289.17 1261.98 289.41L1279.47 314.01L1312.86 290.7C1312.44 289.98 1312.23 289.2 1312.2 288.39L1263.66 286.32C1263.57 287.1 1263.3 287.88 1262.79 288.57ZM1345.8 163.08C1345.14 162.54 1344.69 161.85 1344.42 161.1L1268.67 183.81L1259.76 281.25C1260.36 281.37 1260.93 281.58 1261.47 281.91L1345.8 163.08ZM1254.75 284.16L1195.71 256.86L1183.5 299.22C1183.9 299.36 1184.28 299.56 1184.64 299.82C1185.51 300.45 1186.08 301.32 1186.35 302.25L1254.51 286.56C1254.36 285.75 1254.45 284.94 1254.75 284.16ZM1344.39 158.16L1272.42 130.14L1267.62 152.34C1269.21 150.69 1271.79 150.42 1273.68 151.8C1274.91 152.7 1275.54 154.08 1275.57 155.46L1344.21 158.94C1344.25 158.68 1344.31 158.42 1344.39 158.16ZM1344.18 159.54H1343.91L1275.54 156.06C1275.45 156.84 1275.18 157.59 1274.7 158.25C1273.77 159.54 1272.3 160.2 1270.83 160.17L1268.73 183.15L1344.27 160.5C1344.21 160.18 1344.18 159.86 1344.18 159.54ZM1267.47 158.58L1215.51 198.03C1215.71 198.33 1215.87 198.64 1215.99 198.96L1268.1 183.33L1270.23 160.11C1269.54 159.99 1268.85 159.72 1268.22 159.27C1267.94 159.07 1267.69 158.84 1267.47 158.58ZM1267.08 158.1C1266.82 157.7 1266.63 157.27 1266.51 156.81L1206.21 169.89L1210.86 196.02C1212.06 195.81 1213.32 196.05 1214.37 196.83C1214.67 197.03 1214.93 197.27 1215.15 197.55L1267.08 158.1ZM1205.61 170.01L1134.42 185.43C1134.48 185.83 1134.49 186.23 1134.45 186.63L1207.14 199.47C1207.26 198.9 1207.53 198.33 1207.89 197.85C1208.49 197.01 1209.33 196.44 1210.26 196.14L1205.61 170.01ZM1164.48 241.77L1195.32 256.05L1210.08 204.93C1209.68 204.79 1209.29 204.59 1208.91 204.33C1208.79 204.23 1208.67 204.12 1208.55 204L1163.91 237.36C1164.84 238.65 1165.05 240.3 1164.48 241.77ZM1134.36 187.23C1134.24 187.8 1133.97 188.34 1133.61 188.85C1133.28 189.33 1132.83 189.72 1132.35 190.02L1148.91 220.11L1207.17 201.69C1207.05 201.23 1207 200.77 1207.02 200.31L1134.36 187.23ZM1149.21 220.62L1157.76 236.16C1159.32 235.2 1161.33 235.23 1162.89 236.37C1163.11 236.53 1163.32 236.71 1163.52 236.91L1208.13 203.55C1207.8 203.16 1207.53 202.71 1207.35 202.23L1149.21 220.62ZM1161.93 244.35L1180.71 299.1C1181.4 298.92 1182.18 298.89 1182.9 299.04L1195.14 256.59L1164.21 242.31C1164.11 242.49 1164 242.66 1163.88 242.82C1163.37 243.54 1162.68 244.05 1161.93 244.35ZM1254.99 283.59C1255.07 283.41 1255.17 283.24 1255.29 283.08C1255.65 282.6 1256.07 282.21 1256.55 281.91L1213.62 204.75C1212.69 205.17 1211.64 205.29 1210.65 205.08L1195.86 256.26L1254.99 283.59ZM1257.09 281.64C1257.72 281.31 1258.47 281.16 1259.19 281.19L1268.04 183.96L1216.14 199.53C1216.44 200.79 1216.2 202.17 1215.39 203.28C1215.03 203.76 1214.61 204.15 1214.16 204.45L1257.09 281.64ZM1197.66 100.41L1271.97 129.33L1282.77 79.2901L1197.81 98.3101C1197.93 99.0001 1197.87 99.7201 1197.66 100.41ZM1197.15 101.49L1267.02 152.31L1271.85 129.93L1197.45 100.98C1197.35 101.16 1197.25 101.33 1197.15 101.49ZM1194.36 103.5L1206.09 169.29L1266.39 156.24C1266.21 155.16 1266.42 154.05 1267.05 153.06L1196.79 101.97C1196.16 102.75 1195.29 103.29 1194.36 103.5ZM1132.83 182.58C1133.58 183.18 1134.09 183.99 1134.33 184.86L1205.52 169.41L1193.76 103.62C1192.74 103.74 1191.69 103.5 1190.79 102.93L1132.83 182.58ZM1190.28 102.57C1189.26 101.73 1188.69 100.56 1188.6 99.3301L1137.96 99.2701L1130.58 181.56C1131.18 181.65 1131.78 181.86 1132.32 182.22L1190.28 102.57ZM1137.39 99.2701L1057.47 99.1801C1057.47 100.14 1057.2 101.1 1056.6 101.94C1056.54 102.02 1056.47 102.1 1056.39 102.18L1127.07 182.46C1127.91 181.8 1128.96 181.47 1130.01 181.5L1137.39 99.2701ZM1142.94 44.1301L1138.02 98.6701L1188.63 98.7301C1188.69 97.8901 1188.96 97.0501 1189.5 96.3001C1189.66 96.0801 1189.84 95.8801 1190.04 95.7001L1145.79 43.2301C1144.95 43.8301 1143.93 44.1301 1142.94 44.1301ZM1082.04 80.1301L1056.81 96.8101C1057.14 97.3501 1057.35 97.9801 1057.44 98.6101L1137.42 98.6701L1142.34 44.0701C1141.62 43.9501 1140.93 43.6801 1140.33 43.2301C1139.95 42.9501 1139.62 42.6401 1139.34 42.3001L1082.04 80.1301ZM1138.53 40.4701L1048.41 53.9701L1052.91 94.5901C1053.84 94.5901 1054.77 94.8601 1055.58 95.4601C1055.92 95.7001 1056.21 95.9801 1056.45 96.3001L1134.45 44.8201L1139.04 41.7901C1138.8 41.3701 1138.63 40.9301 1138.53 40.4701ZM1049.13 96.4801C1049.15 96.4401 1049.18 96.3901 1049.22 96.3301L1007.4 64.7701C1006.2 66.0901 1004.37 66.5701 1002.72 66.0901L984.06 118.29L1048.35 100.17C1048.08 98.9101 1048.32 97.5901 1049.13 96.4801ZM1039.2 12.8101L1007.28 2.5201L1002.9 57.1501C1003.56 57.0001 1004.25 57.0001 1004.94 57.1201L1019.7 40.5001L1040.43 17.1001C1039.29 15.9601 1038.84 14.3401 1039.2 12.8101ZM1049.64 95.9101C1050.36 95.1601 1051.32 94.7401 1052.31 94.6201L1047.81 54.0601L1008.27 59.9701C1008.84 61.3501 1008.69 62.9701 1007.79 64.2901L1049.64 95.9101ZM1044.45 18.4501L1048.32 53.3701L1138.44 39.9001C1138.4 39.4801 1138.42 39.0601 1138.5 38.6401L1048.08 15.3901C1047.92 15.8101 1047.71 16.2101 1047.45 16.5901C1046.7 17.6101 1045.62 18.2401 1044.45 18.4501ZM1040.97 17.6101C1040.95 17.5901 1040.92 17.5601 1040.88 17.5201L1024.17 36.3901L1005.57 57.3301C1005.97 57.4701 1006.35 57.6701 1006.71 57.9301C1007.25 58.3501 1007.7 58.8601 1008 59.4001L1047.75 53.4601L1043.85 18.4801C1042.86 18.5401 1041.84 18.2401 1040.97 17.6101ZM1013.07 -69.6599L1007.34 1.9201L1039.38 12.2701C1039.52 11.8701 1039.71 11.5001 1039.95 11.1601C1040.46 10.4701 1041.12 9.9601 1041.84 9.6301L1014.39 -69.8399C1013.95 -69.7199 1013.51 -69.6599 1013.07 -69.6599ZM950.79 -19.9499C951.63 -18.8399 951.93 -17.3699 951.6 -16.0199L1006.74 1.7401L1012.47 -69.7199C1011.75 -69.8099 1011.06 -70.0799 1010.43 -70.5599C1010.23 -70.6999 1010.04 -70.8599 1009.86 -71.0399L950.79 -19.9499ZM950.01 -13.5599L981.39 30.6001L1000.98 58.1701C1001.36 57.8301 1001.79 57.5701 1002.27 57.3901L1006.68 2.37009L951.39 -15.4499C951.25 -15.1099 951.07 -14.7699 950.85 -14.4299C950.61 -14.1099 950.33 -13.8199 950.01 -13.5599ZM946.26 -12.6299L930.99 47.3101L999.51 60.5101C999.63 59.9701 999.87 59.4301 1000.23 58.9501C1000.33 58.8301 1000.43 58.7101 1000.53 58.5901L949.53 -13.2299C948.54 -12.6299 947.37 -12.4199 946.26 -12.6299ZM943.8 -13.9199L886.47 35.5501C887.19 36.5101 887.52 37.7401 887.37 38.9101L930.39 47.1901L945.66 -12.7499C945.21 -12.8999 944.79 -13.1099 944.37 -13.4099C944.17 -13.5699 943.98 -13.7399 943.8 -13.9199ZM885.51 34.5901C885.71 34.7501 885.9 34.9201 886.08 35.1001L943.41 -14.3699C942.72 -15.2699 942.42 -16.4099 942.48 -17.5199L874.35 -27.3599C874.23 -26.6699 873.96 -26.0099 873.54 -25.4399C872.88 -24.5399 871.95 -23.9399 870.96 -23.6999L882.18 33.7501C883.32 33.6001 884.49 33.8701 885.51 34.5901ZM907.86 135.78L930.24 47.7901L887.25 39.5101C887.1 40.0501 886.86 40.5901 886.53 41.0701C885.9 41.9101 885.06 42.4801 884.13 42.7501L906.24 135.78C906.75 135.69 907.32 135.69 907.86 135.78ZM1000.2 64.3501C999.54 63.3901 999.24 62.2201 999.39 61.1101L930.84 47.9101L908.43 135.93C908.88 136.08 909.33 136.29 909.72 136.59C909.98 136.77 910.21 136.97 910.41 137.19L1000.2 64.3501ZM911.34 138.81L983.34 118.5L1002.12 65.9101C1001.82 65.7901 1001.53 65.6301 1001.25 65.4301C1000.99 65.2501 1000.76 65.0501 1000.56 64.8301L910.77 137.67C911.01 138.03 911.2 138.41 911.34 138.81ZM980.25 127.14L983.07 119.19L911.52 139.38C911.52 139.42 911.52 139.45 911.52 139.47L974.37 131.85C974.31 130.8 974.58 129.75 975.24 128.85C976.41 127.23 978.42 126.6 980.25 127.14ZM983.07 129.45L1048.5 100.8C1048.48 100.78 1048.47 100.77 1048.47 100.77L983.79 119.01L980.82 127.32C981.12 127.46 981.41 127.63 981.69 127.83C982.29 128.28 982.77 128.82 983.07 129.45ZM1100.25 230.67L1054.44 103.56C1053.03 104.07 1051.41 103.92 1050.12 102.96C1049.52 102.54 1049.04 101.97 1048.74 101.34L983.34 129.99C983.82 131.4 983.67 133.02 982.71 134.31C982.71 134.31 982.71 134.32 982.71 134.34L1098.36 232.02C1098.87 231.39 1099.53 230.94 1100.25 230.67ZM1104.24 231L1127.34 190.02C1127.28 189.98 1127.21 189.94 1127.13 189.9C1125.09 188.4 1124.61 185.49 1126.11 183.42C1126.27 183.22 1126.43 183.04 1126.59 182.88L1067.19 115.38L1055.97 102.63C1055.67 102.91 1055.34 103.14 1054.98 103.32L1100.85 230.49C1101.96 230.22 1103.19 230.37 1104.24 231ZM1148.34 220.32L1131.84 190.35C1130.58 190.92 1129.14 190.92 1127.85 190.32L1104.75 231.36C1105.53 231.96 1106.04 232.74 1106.31 233.61L1148.34 220.32ZM1156.44 237.42C1156.68 237.08 1156.96 236.79 1157.28 236.55L1148.64 220.86L1106.49 234.21C1106.55 234.57 1106.57 234.93 1106.55 235.29L1155.6 239.55C1155.69 238.8 1155.96 238.08 1156.44 237.42ZM1099.08 388.26L1158.15 244.29C1157.91 244.17 1157.68 244.03 1157.46 243.87C1156.59 243.27 1156.02 242.4 1155.75 241.44L1045.56 266.13C1045.74 267.3 1045.47 268.53 1044.72 269.58C1044.3 270.18 1043.76 270.63 1043.16 270.93L1095.84 388.38C1096.86 387.96 1098 387.93 1099.08 388.26ZM1178.55 306.75C1177.08 305.16 1176.87 302.7 1178.19 300.87C1178.7 300.18 1179.39 299.67 1180.17 299.34L1161.39 244.59C1160.52 244.83 1159.59 244.83 1158.69 244.53L1099.62 388.5C1099.86 388.62 1100.09 388.76 1100.31 388.92C1100.41 389 1100.51 389.08 1100.61 389.16L1178.55 306.75ZM1199.31 403.17L1182.45 308.19C1181.34 308.31 1180.2 308.04 1179.21 307.35C1179.13 307.29 1179.06 307.22 1179 307.14L1101.03 389.55C1102.47 391.14 1102.65 393.57 1101.33 395.37C1101.31 395.41 1101.29 395.44 1101.27 395.46L1148.58 433.68C1150.14 432 1152.78 431.7 1154.7 433.08C1155.12 433.41 1155.48 433.77 1155.78 434.19L1196.19 409.92C1195.35 408.42 1195.41 406.47 1196.49 404.97C1197.21 404.01 1198.2 403.41 1199.31 403.17ZM1256.79 289.86C1256.65 289.78 1256.5 289.69 1256.34 289.59C1255.5 288.96 1254.93 288.09 1254.63 287.16L1186.5 302.85C1186.68 304.02 1186.44 305.28 1185.69 306.33C1185 307.23 1184.07 307.83 1183.05 308.1L1199.88 403.08C1200.66 403.02 1201.41 403.17 1202.13 403.47L1256.79 289.86ZM1233.18 348.75C1233.16 348.75 1233.15 348.74 1233.15 348.72C1231.68 347.67 1231.02 345.9 1231.29 344.22L1204.8 399.3L1233.18 348.75ZM1237.08 340.53L1255.71 293.55L1232.43 341.88C1233.63 340.56 1235.43 340.08 1237.08 340.53ZM1278.99 314.34L1261.5 289.77C1260.36 290.49 1258.95 290.64 1257.66 290.25L1237.65 340.71C1237.99 340.85 1238.3 341.03 1238.58 341.25C1238.88 341.47 1239.15 341.72 1239.39 342L1278.99 314.34ZM1303.29 348.48L1279.35 314.82L1239.75 342.45C1240.26 343.26 1240.53 344.19 1240.5 345.12L1301.64 351.3C1301.76 350.61 1302.03 349.92 1302.45 349.32C1302.69 349 1302.97 348.72 1303.29 348.48ZM1315.77 292.77C1315.2 292.65 1314.63 292.38 1314.12 292.02C1313.78 291.76 1313.48 291.47 1313.22 291.15L1279.83 314.49L1303.77 348.12C1304.64 347.58 1305.66 347.34 1306.65 347.46L1307.73 341.1L1315.77 292.77ZM1317.63 283.71L1318.8 279.03L1263.66 285.54C1263.66 285.6 1263.66 285.65 1263.66 285.69L1312.23 287.76C1312.32 286.98 1312.59 286.2 1313.07 285.54C1314.15 284.04 1315.95 283.41 1317.63 283.71ZM1396.14 269.85L1319.43 278.94L1318.23 283.83C1318.68 283.98 1319.13 284.22 1319.55 284.52C1320.39 285.12 1320.96 285.99 1321.26 286.92L1396.14 269.85ZM1350.51 163.83C1349.7 164.13 1348.83 164.25 1347.96 164.07L1319.58 278.34L1397.07 269.16C1397.01 268.11 1397.31 267.06 1397.94 266.19C1398.36 265.62 1398.87 265.2 1399.41 264.87L1350.51 163.83ZM1416.69 141.63L1284.21 79.7401L1346.1 155.79C1347.66 154.65 1349.85 154.62 1351.5 155.82C1353.21 157.05 1353.81 159.21 1353.15 161.1L1416.48 144.21C1416.3 143.37 1416.36 142.47 1416.69 141.63Z" fill="#00A8E8"/>
</g>
<path fill-rule="evenodd" clip-rule="evenodd" d="M1339.92 417.81C1338.78 418.26 1337.55 418.02 1336.68 417.33L1306.53 448.17C1306.8 448.47 1307.04 448.83 1307.19 449.22C1307.85 450.9 1307.04 452.76 1305.36 453.42C1303.68 454.08 1301.79 453.27 1301.13 451.59C1301.13 451.55 1301.12 451.51 1301.1 451.47L1255.89 461.61C1255.92 462.93 1255.11 464.19 1253.82 464.7C1252.14 465.33 1250.28 464.52 1249.62 462.84C1249.11 461.58 1249.47 460.17 1250.4 459.3L1238.97 441.63L1217.37 408.21C1217.35 408.23 1217.34 408.24 1217.34 408.24C1215.66 408.9 1213.77 408.06 1213.11 406.41C1212.48 404.73 1213.29 402.84 1214.97 402.18C1215.48 401.97 1216.02 401.91 1216.56 401.97L1226.79 351.27C1225.89 350.97 1225.11 350.31 1224.75 349.35C1224.27 348.09 1224.6 346.71 1225.5 345.84L1179.45 286.14C1179.29 286.24 1179.13 286.33 1178.97 286.41C1177.29 287.04 1175.4 286.23 1174.74 284.55C1174.44 283.77 1174.47 282.96 1174.74 282.24L1137.66 264.42C1137.3 265.02 1136.76 265.5 1136.07 265.77C1134.39 266.43 1132.5 265.62 1131.84 263.94C1131.54 263.13 1131.57 262.26 1131.87 261.51L1072.56 230.01C1072.23 230.55 1071.69 231 1071.03 231.24C1069.38 231.9 1067.49 231.09 1066.83 229.41C1066.17 227.73 1067.01 225.84 1068.66 225.18C1069.38 224.91 1070.1 224.91 1070.76 225.09L1087.11 183.75C1086.42 183.39 1085.85 182.82 1085.55 182.04C1084.95 180.54 1085.55 178.86 1086.9 178.05L1041 82.1402L1041.27 82.0203C1040.16 82.4403 1038.99 82.2303 1038.12 81.5703L1010.01 112.56C1010.28 112.83 1010.49 113.16 1010.64 113.55C1011.3 115.23 1010.49 117.12 1008.81 117.78C1007.13 118.44 1005.27 117.6 1004.61 115.92C1004.19 114.9 1004.34 113.82 1004.91 112.95L934.408 56.3103C934.108 56.6103 933.748 56.8503 933.358 57.0002C932.068 57.5103 930.658 57.1503 929.788 56.1903L900.118 80.3403C900.218 80.5002 900.298 80.6603 900.358 80.8203C901.018 82.5003 900.208 84.3603 898.528 85.0203C896.848 85.6803 894.958 84.8703 894.298 83.1902C893.938 82.2603 894.028 81.2703 894.478 80.4303L807.928 14.6403C807.598 15.0003 807.208 15.2702 806.728 15.4803C805.048 16.1403 803.158 15.3003 802.498 13.6203C801.868 11.9703 802.678 10.0803 804.358 9.42026C805.708 8.88026 807.208 9.33025 808.078 10.4102L869.968 -30.6597C869.908 -30.7797 869.848 -30.8997 869.788 -31.0198C869.158 -32.6998 869.968 -34.5598 871.648 -35.2197C873.298 -35.8798 875.188 -35.0697 875.848 -33.3897C876.298 -32.2197 876.028 -30.9297 875.248 -30.0597L909.778 6.63025C910.018 6.45026 910.288 6.30025 910.588 6.18025C911.728 5.73026 912.988 5.97026 913.858 6.72026L937.528 -16.4697C937.348 -16.7097 937.198 -16.9697 937.078 -17.2497C936.448 -18.9297 937.258 -20.8197 938.938 -21.4797C940.588 -22.1097 942.448 -21.2997 943.138 -19.6797L985.888 -30.8698C985.558 -32.3997 986.368 -33.9897 987.868 -34.5597C988.318 -34.7397 988.798 -34.7998 989.248 -34.7698L995.908 -77.4298C994.918 -77.6997 994.078 -78.3898 993.688 -79.4098C993.028 -81.0598 993.838 -82.9498 995.518 -83.6098C997.198 -84.2698 999.058 -83.4598 999.718 -81.7798C999.868 -81.3898 999.958 -80.9998 999.958 -80.6098L1038.75 -77.0998C1038.93 -78.1797 1039.65 -79.1098 1040.73 -79.5598C1041.54 -79.8598 1042.41 -79.8298 1043.16 -79.5298L1068.39 -128.04C1067.82 -128.4 1067.37 -128.94 1067.1 -129.6C1066.44 -131.25 1067.28 -133.14 1068.96 -133.8C1070.61 -134.46 1072.5 -133.65 1073.16 -131.97C1073.58 -130.92 1073.4 -129.78 1072.8 -128.91L1132.8 -77.7598C1133.1 -78.0598 1133.49 -78.2997 1133.88 -78.4497C1133.98 -78.4897 1134.07 -78.5197 1134.15 -78.5397L1157.07 -118.98C1156.56 -119.34 1156.14 -119.82 1155.9 -120.45C1155.24 -122.13 1156.05 -124.02 1157.73 -124.65C1159.41 -125.31 1161.27 -124.5 1161.93 -122.82C1162.59 -121.14 1161.78 -119.28 1160.1 -118.62C1160 -118.58 1159.9 -118.54 1159.8 -118.5L1178.52 -16.8297H1178.73L1178.58 -16.4997L1178.79 -15.2997L1178.31 -15.9597L1150.41 38.2803C1150.95 38.6403 1151.4 39.1503 1151.67 39.8103C1152.18 41.1302 1151.79 42.6003 1150.77 43.4703L1178.58 82.8603C1178.72 82.7803 1178.87 82.7103 1179.03 82.6503C1180.68 81.9902 1182.57 82.8003 1183.23 84.4803C1183.86 86.0403 1183.17 87.8103 1181.7 88.5603L1286.82 166.98C1287.15 166.62 1287.57 166.32 1288.05 166.14C1289.73 165.48 1291.62 166.29 1292.28 167.97C1292.91 169.65 1292.1 171.54 1290.42 172.2C1289.76 172.44 1289.04 172.47 1288.38 172.29L1250.25 273.87C1250.97 274.2 1251.54 274.8 1251.87 275.61C1252.14 276.33 1252.14 277.11 1251.93 277.8L1294.08 295.98C1294.41 295.35 1295.01 294.81 1295.73 294.54C1297.41 293.88 1299.3 294.69 1299.96 296.37C1300.41 297.57 1300.11 298.89 1299.3 299.76L1326.99 331.08C1327.21 330.9 1327.46 330.76 1327.74 330.66C1329.39 330 1331.28 330.84 1331.94 332.49C1332.6 334.17 1331.76 336.06 1330.11 336.72C1329.93 336.78 1329.76 336.83 1329.6 336.87L1338.63 411.54C1339.95 411.51 1341.24 412.29 1341.75 413.61C1342.41 415.29 1341.57 417.18 1339.92 417.81ZM1272.9 435.09L1218.6 407.34C1218.4 407.56 1218.17 407.76 1217.91 407.94L1237.92 438.9L1250.88 458.94C1251.06 458.82 1251.25 458.72 1251.45 458.64C1252.5 458.22 1253.64 458.4 1254.51 459L1272.9 435.09ZM1137.36 260.7L1181.16 230.49C1181.08 230.35 1181.01 230.21 1180.95 230.07C1180.85 229.77 1180.78 229.47 1180.74 229.17L1137.36 228.93L1135.38 259.56C1136.16 259.68 1136.85 260.07 1137.36 260.7ZM1136.82 228.33L1139.97 179.46C1139.25 179.34 1138.56 178.98 1138.05 178.41L1072.62 226.56C1072.72 226.7 1072.8 226.86 1072.86 227.04C1072.98 227.34 1073.05 227.64 1073.07 227.94L1136.82 228.33ZM1045.17 -76.1398C1045.05 -74.9697 1044.3 -73.9197 1043.13 -73.4697C1042.62 -73.2597 1042.08 -73.1997 1041.57 -73.2597L1034.46 -40.3797L1048.44 -76.1097L1045.17 -76.1398ZM1069.26 -127.62L1049.31 -76.6798L1131.87 -75.7197C1131.93 -76.2897 1132.11 -76.7997 1132.44 -77.2497L1072.41 -128.4C1072.11 -128.13 1071.75 -127.89 1071.33 -127.71C1070.64 -127.44 1069.92 -127.44 1069.26 -127.62ZM1218.72 162.12L1233.36 191.13C1234.86 190.53 1236.57 191.16 1237.35 192.54L1286.19 170.28C1286.07 169.9 1286.01 169.53 1286.01 169.17L1218.72 162.12ZM1313.7 403.05L1305.18 398.91C1304.85 399.51 1304.28 399.99 1303.59 400.26C1303.33 400.36 1303.07 400.43 1302.81 400.47L1304.01 447.18C1304.09 447.18 1304.16 447.18 1304.22 447.18L1313.7 403.05ZM1301.85 392.67L1297.65 316.17L1288.56 310.98C1288.2 311.49 1287.72 311.88 1287.09 312.12C1286.99 312.16 1286.89 312.2 1286.79 312.24L1289.4 326.07L1301.85 392.67ZM1284.24 311.88L1248.42 361.47L1299.84 395.22C1300.2 394.8 1300.65 394.44 1301.19 394.23C1301.29 394.19 1301.39 394.15 1301.49 394.11L1295.25 360.72L1286.19 312.33C1285.5 312.39 1284.81 312.24 1284.24 311.88ZM1313.82 402.45L1327.92 336.84L1303.92 394.38C1304.58 394.74 1305.12 395.31 1305.42 396.06C1305.72 396.84 1305.69 397.65 1305.42 398.37L1313.82 402.45ZM1325.94 332.4L1298.25 316.53L1302.51 394.02C1302.81 394.02 1303.1 394.07 1303.38 394.17L1327.38 336.6C1326.72 336.24 1326.18 335.67 1325.88 334.92C1325.55 334.08 1325.58 333.15 1325.94 332.4ZM1326.54 331.5L1298.82 300.21C1298.6 300.39 1298.36 300.53 1298.1 300.63C1297.86 300.71 1297.62 300.77 1297.38 300.81L1298.22 315.81L1326.24 331.86C1326.32 331.74 1326.42 331.62 1326.54 331.5ZM1288.35 306.99C1288.59 307.25 1288.78 307.56 1288.92 307.92C1289.25 308.79 1289.19 309.69 1288.86 310.47L1297.59 315.48L1296.78 300.84C1296.09 300.81 1295.43 300.57 1294.89 300.15L1288.35 306.99ZM1283.25 307.23L1251.06 279.18C1250.76 279.48 1250.43 279.69 1250.01 279.87C1249.41 280.08 1248.78 280.14 1248.21 280.02L1242.69 298.62L1282.83 308.07C1282.93 307.77 1283.07 307.49 1283.25 307.23ZM1245.57 276.84C1245.57 276.24 1245.75 275.67 1246.05 275.16L1203.48 243.72L1179.87 280.95C1180.26 281.31 1180.59 281.73 1180.8 282.24C1180.9 282.5 1180.96 282.76 1180.98 283.02L1245.57 276.84ZM1041.33 76.0502L1057.83 49.8002L1048.74 41.1903C1048.54 41.3303 1048.32 41.4503 1048.08 41.5502C1047.57 41.7603 1047.06 41.8203 1046.55 41.7603L1040.76 75.8703C1040.96 75.9103 1041.15 75.9702 1041.33 76.0502ZM930.958 51.0002C931.318 50.8802 931.708 50.7903 932.068 50.7903L936.568 10.3802L914.968 9.66025C914.848 10.6503 914.248 11.5502 913.348 12.0603L930.958 51.0002ZM934.798 52.1703L1004.64 13.8003C1004.62 13.7603 1004.6 13.7202 1004.58 13.6803C1004.46 13.3602 1004.39 13.0303 1004.37 12.6903L937.198 10.4102L932.668 50.8203C933.538 50.9703 934.288 51.4503 934.798 52.1703ZM1231.29 193.89L1181.82 185.16L1184.1 225.69C1185.03 225.72 1185.9 226.14 1186.5 226.86L1231.68 195.75C1231.62 195.63 1231.56 195.5 1231.5 195.36C1231.32 194.88 1231.26 194.37 1231.29 193.89ZM1181.19 185.04L1143.06 178.32C1142.88 178.54 1142.67 178.74 1142.43 178.92L1182.15 226.26C1182.35 226.12 1182.57 226 1182.81 225.9C1183.03 225.82 1183.26 225.76 1183.5 225.72L1181.19 185.04ZM1181.16 184.41L1179.84 161.01C1178.79 160.95 1177.83 160.41 1177.26 159.51L1174.32 161.01L1143.72 176.55C1143.69 176.97 1143.57 177.36 1143.39 177.75L1181.16 184.41ZM1176.87 156.93L1153.86 148.11L1142.82 174C1143.12 174.3 1143.36 174.66 1143.51 175.08C1143.61 175.34 1143.68 175.6 1143.72 175.86L1174.05 160.44L1176.99 158.94C1176.72 158.28 1176.72 157.56 1176.87 156.93ZM1231.65 192.6L1182.51 159.84C1182.18 160.26 1181.73 160.56 1181.19 160.77C1180.95 160.87 1180.7 160.94 1180.44 160.98L1181.76 184.53L1231.38 193.29C1231.44 193.05 1231.53 192.82 1231.65 192.6ZM1179.21 88.8002L1154.1 147.57L1177.08 156.36C1177.44 155.64 1178.04 155.04 1178.82 154.74C1179.1 154.62 1179.38 154.55 1179.66 154.53L1179.9 88.9203C1179.66 88.9003 1179.43 88.8603 1179.21 88.8002ZM1178.64 88.5603C1178.42 88.4203 1178.21 88.2603 1178.01 88.0803L1157.7 106.32L1126.29 134.55C1126.45 134.75 1126.57 134.97 1126.65 135.21C1126.92 135.84 1126.95 136.5 1126.8 137.1L1153.56 147.33L1178.64 88.5603ZM1133.67 -72.4497L1104.96 -25.2297L1120.83 -22.5897C1121.07 -23.5798 1121.79 -24.4197 1122.78 -24.8097C1123.29 -24.9897 1123.83 -25.0498 1124.34 -24.9897L1128.06 -43.0497L1134.12 -72.2697C1133.96 -72.3097 1133.81 -72.3697 1133.67 -72.4497ZM1079.37 65.6703L1102.44 20.1003L1085.58 12.3302C1085.22 12.8703 1084.68 13.3203 1084.05 13.5603C1083.66 13.7103 1083.27 13.8003 1082.91 13.8003L1078.74 65.4903C1078.96 65.5303 1079.17 65.5903 1079.37 65.6703ZM1102.71 19.5603L1122.24 -19.0198C1122.02 -19.1598 1121.81 -19.3297 1121.61 -19.5297L1085.58 8.79025C1085.7 8.97026 1085.8 9.16025 1085.88 9.36026C1086.21 10.1703 1086.18 11.0403 1085.85 11.7903L1102.71 19.5603ZM1104.63 -24.6597L1084.8 7.95026C1084.94 8.05026 1085.08 8.17026 1085.22 8.31026L1108.38 -9.89974L1121.25 -20.0097C1121.13 -20.1897 1121.03 -20.3797 1120.95 -20.5797C1120.77 -21.0597 1120.71 -21.5397 1120.74 -21.9897L1104.63 -24.6597ZM1104 -24.7797L1036.47 -35.9697C1036.35 -35.5198 1036.14 -35.1298 1035.87 -34.7698L1080.72 8.10027C1081.02 7.86026 1081.32 7.65025 1081.68 7.53026C1082.55 7.17026 1083.51 7.26025 1084.29 7.62025L1104 -24.7797ZM1034.19 -33.6297L1042.29 11.3103L1079.64 10.3503C1079.67 9.69026 1079.91 9.06026 1080.33 8.55026L1035.48 -34.3197C1035.18 -34.0798 1034.88 -33.8997 1034.52 -33.7497C1034.42 -33.7097 1034.31 -33.6697 1034.19 -33.6297ZM1042.38 11.9102L1046.61 35.3103C1047.63 35.2203 1048.65 35.6403 1049.34 36.4203L1079.94 11.9703C1079.9 11.8903 1079.87 11.8103 1079.85 11.7303C1079.75 11.4702 1079.68 11.2103 1079.64 10.9503L1042.38 11.9102ZM1049.19 40.8002L1058.13 49.2903L1080.9 13.1403C1080.66 12.9603 1080.45 12.7402 1080.27 12.4803L1049.67 36.9003C1049.75 37.0403 1049.82 37.1902 1049.88 37.3503C1050.39 38.5802 1050.06 39.9303 1049.19 40.8002ZM1058.58 49.7103L1076.04 66.2403C1076.31 66.0003 1076.64 65.7903 1077 65.6703C1077.39 65.5203 1077.75 65.4303 1078.14 65.4303L1082.13 13.7103C1081.87 13.6503 1081.63 13.5603 1081.41 13.4403L1058.58 49.7103ZM1124.34 133.29L1138.41 79.0803L1081.32 69.5403C1081.14 70.1703 1080.75 70.7703 1080.24 71.2203L1097.4 96.6303L1122.27 133.47C1122.31 133.45 1122.36 133.44 1122.42 133.44C1123.05 133.17 1123.71 133.14 1124.34 133.29ZM1145.49 41.9703C1145.28 41.3103 1145.31 40.6203 1145.55 39.9903L1102.95 20.3703L1079.91 65.9403C1080.39 66.2703 1080.81 66.6903 1081.08 67.2303L1145.49 41.9703ZM1147.14 38.1903L1124.85 -18.6297C1124.16 -18.4197 1123.41 -18.4798 1122.78 -18.7197L1103.25 19.8603L1145.79 39.4503C1146.09 38.9102 1146.57 38.4603 1147.14 38.1903ZM1125.69 -18.9897L1141.38 -18.3297L1135.11 -72.1197C1134.97 -72.1197 1134.84 -72.1197 1134.72 -72.1197L1127.64 -38.0097L1124.91 -24.8397C1125.81 -24.5697 1126.62 -23.8798 1126.98 -22.9197C1127.55 -21.4498 1126.98 -19.7998 1125.69 -18.9897ZM1036.44 -37.6198C1036.54 -37.2598 1036.58 -36.8897 1036.56 -36.5097L1104.3 -25.2897L1133.13 -72.7197C1132.74 -73.0197 1132.38 -73.4097 1132.14 -73.8597L1036.44 -37.6198ZM1032.09 -33.7497L1009.35 9.78026C1009.89 10.1403 1010.34 10.6503 1010.61 11.3103C1010.71 11.5903 1010.77 11.8603 1010.79 12.1203L1041.66 11.3403L1033.59 -33.5397C1033.08 -33.4798 1032.54 -33.5697 1032.09 -33.7497ZM1010.43 14.0403L1044.33 36.5103C1044.66 36.0903 1045.11 35.7303 1045.65 35.5203C1045.77 35.4803 1045.88 35.4402 1045.98 35.4003L1041.75 11.9102L1010.82 12.7203C1010.79 13.2003 1010.64 13.6503 1010.43 14.0403ZM1042.98 77.6703L1074.96 69.2403C1074.81 68.3103 1075.05 67.3803 1075.62 66.6903L1058.25 50.2203L1041.81 76.3203C1042.29 76.6503 1042.71 77.1003 1042.98 77.6703ZM1042.92 80.4902L1121.25 134.19C1121.41 134.03 1121.58 133.89 1121.76 133.77L1118.1 128.37L1079.73 71.5502C1079.61 71.6102 1079.49 71.6703 1079.37 71.7303C1077.69 72.3603 1075.8 71.5503 1075.14 69.8703C1075.14 69.8503 1075.13 69.8303 1075.11 69.8103L1043.16 78.2402C1043.37 79.0202 1043.28 79.8002 1042.92 80.4902ZM1125.36 139.17L1139.4 173.25C1140.42 172.89 1141.47 173.07 1142.28 173.64L1153.26 147.93L1126.59 137.7C1126.32 138.3 1125.9 138.81 1125.36 139.17ZM1186.71 230.61L1203.27 242.85L1232.49 196.74C1232.31 196.6 1232.14 196.44 1231.98 196.26L1186.77 227.34C1186.85 227.48 1186.92 227.62 1186.98 227.76C1187.37 228.72 1187.22 229.77 1186.71 230.61ZM1247.94 273.72L1234.74 197.43C1234.14 197.46 1233.54 197.34 1233 197.07L1203.78 243.21L1246.35 274.68C1246.68 274.32 1247.1 274.02 1247.61 273.81C1247.71 273.77 1247.82 273.74 1247.94 273.72ZM1217.97 162.06L1183.17 158.43C1183.09 158.77 1182.97 159.09 1182.81 159.39L1231.95 192.12C1232.17 191.86 1232.44 191.63 1232.76 191.43L1217.97 162.06ZM1217.64 161.43L1181.07 88.8303C1180.87 88.8903 1180.66 88.9303 1180.44 88.9503L1180.23 154.53C1181.43 154.62 1182.54 155.4 1183.02 156.6C1183.17 156.99 1183.23 157.41 1183.23 157.8L1217.64 161.43ZM1176.93 85.5003L1139.01 79.1703L1124.91 133.47C1125.27 133.65 1125.6 133.86 1125.87 134.13L1177.56 87.6902C1177.38 87.4503 1177.24 87.2003 1177.14 86.9402C1176.96 86.4603 1176.9 85.9803 1176.93 85.5003ZM1147.5 44.1303C1146.75 43.8603 1146.09 43.2903 1145.7 42.5403L1081.29 67.8002C1081.41 68.1803 1081.45 68.5603 1081.41 68.9403L1138.56 78.4803L1147.5 44.1303ZM1147.95 37.9203L1141.47 -17.7297L1125.6 -18.3897L1147.71 37.9803C1147.79 37.9603 1147.87 37.9403 1147.95 37.9203ZM1142.01 -18.2997L1177.62 -16.7698L1136.73 -72.5697C1136.57 -72.4697 1136.4 -72.3898 1136.22 -72.3298C1136.06 -72.2698 1135.89 -72.2197 1135.71 -72.1798L1142.01 -18.2997ZM1049.07 -76.0497L1034.82 -39.6297C1035.42 -39.3297 1035.96 -38.8197 1036.26 -38.1597L1131.81 -74.3697L1131.93 -74.5497C1131.87 -74.7297 1131.84 -74.9097 1131.84 -75.0897L1049.07 -76.0497ZM998.998 -78.2098L1017.57 -56.0397L1039.26 -74.5497C1039.12 -74.7697 1039 -74.9997 1038.9 -75.2397C1038.75 -75.6297 1038.66 -76.0197 1038.66 -76.4097L999.868 -79.9197C999.778 -79.2597 999.448 -78.6898 998.998 -78.2098ZM1017.96 -55.5898L1031.52 -39.3897C1031.72 -39.5498 1031.93 -39.6697 1032.15 -39.7497C1032.69 -39.9597 1033.23 -40.0197 1033.74 -39.9597L1040.94 -73.3197C1040.46 -73.4697 1040.01 -73.7397 1039.65 -74.0998L1017.96 -55.5898ZM1017.51 -55.1997L991.768 -33.2397C991.888 -33.0597 991.988 -32.8597 992.068 -32.6397C992.148 -32.4197 992.208 -32.2097 992.248 -32.0097L1030.11 -36.6297C1030.08 -37.5297 1030.44 -38.3997 1031.07 -39.0297L1017.51 -55.1997ZM943.318 -18.8097C943.378 -18.2997 943.348 -17.8197 943.198 -17.3698L1004.79 10.9203C1005.15 10.2903 1005.72 9.78026 1006.44 9.51025C1007.25 9.18025 1008.09 9.24025 1008.84 9.54025L1031.58 -34.0198C1031.04 -34.3497 1030.59 -34.8897 1030.32 -35.5497C1030.3 -35.6297 1030.27 -35.7197 1030.23 -35.8197L943.318 -18.8097ZM990.778 -28.7097L1025.04 -35.4297L992.308 -31.4097C992.278 -30.3298 991.708 -29.3097 990.778 -28.7097ZM942.988 -16.8297C942.628 -16.1697 942.058 -15.6297 941.308 -15.3297C940.888 -15.1797 940.468 -15.0898 940.048 -15.1198L937.258 9.84026L1004.4 12.1203C1004.42 11.9003 1004.47 11.6803 1004.55 11.4603L942.988 -16.8297ZM937.948 -15.9297L914.308 7.23026C914.508 7.49025 914.678 7.78026 914.818 8.10027C914.938 8.42026 915.008 8.75026 915.028 9.09026L936.658 9.81026L939.448 -15.1797C938.908 -15.2997 938.398 -15.5697 937.948 -15.9297ZM909.358 7.14026L875.308 -29.0697L930.358 51.1203L912.838 12.3603C911.188 12.9003 909.388 12.0903 908.758 10.4703C908.278 9.30026 908.578 8.01025 909.358 7.14026ZM873.808 -29.0097L888.478 39.4503L929.158 52.8303C929.338 52.3803 929.638 51.9902 929.998 51.6602L874.408 -29.2797C874.288 -29.2197 874.158 -29.1597 874.018 -29.0997C873.958 -29.0797 873.888 -29.0497 873.808 -29.0097ZM935.338 53.3403L1007.34 43.6203V15.7503C1006.38 15.6603 1005.51 15.1503 1004.94 14.3403L935.128 52.7103C935.148 52.7702 935.168 52.8303 935.188 52.8903C935.248 53.0303 935.298 53.1803 935.338 53.3403ZM1007.94 43.5303L1043.67 38.7003C1043.64 38.1003 1043.79 37.5303 1044.06 37.0203L1010.16 14.5503C1009.83 15.0003 1009.38 15.3303 1008.81 15.5403C1008.53 15.6603 1008.24 15.7303 1007.94 15.7503V43.5303ZM1007.94 44.1602V111.6C1008.26 111.64 1008.56 111.72 1008.84 111.84L1045.17 41.3103C1044.6 40.9503 1044.15 40.4403 1043.88 39.7803C1043.82 39.6203 1043.78 39.4603 1043.76 39.3002L1007.94 44.1602ZM1009.59 112.26L1037.67 81.3002C1037.43 81.0003 1037.19 80.6703 1037.04 80.2803C1036.41 78.6303 1037.22 76.7403 1038.9 76.0803C1039.32 75.9003 1039.74 75.8403 1040.19 75.8403L1045.98 41.7303C1045.88 41.6903 1045.78 41.6503 1045.68 41.6103L1009.38 112.14C1009.44 112.18 1009.51 112.22 1009.59 112.26ZM1041.54 81.9902L1087.44 177.93C1088.43 177.57 1089.51 177.72 1090.35 178.26L1121.4 138.87C1121.07 138.54 1120.8 138.15 1120.62 137.7C1120.23 136.68 1120.38 135.57 1120.92 134.73L1042.68 81.0603C1042.38 81.4503 1041.99 81.7802 1041.54 81.9902ZM1091.76 180.39L1097.91 179.85L1121.19 140.1L1090.8 178.62C1091.13 178.95 1091.43 179.34 1091.61 179.79C1091.67 179.99 1091.72 180.19 1091.76 180.39ZM1098.66 179.79L1137.24 176.37C1137.27 175.2 1137.87 174.12 1138.92 173.55L1124.85 139.53C1123.98 139.86 1123.05 139.8 1122.27 139.44L1098.66 179.79ZM1098.3 180.42L1071.75 225.72C1071.95 225.86 1072.13 226.02 1072.29 226.2L1137.72 178.08C1137.64 177.92 1137.56 177.75 1137.48 177.57C1137.4 177.39 1137.35 177.19 1137.33 176.97L1098.3 180.42ZM1137.42 228.45L1180.77 228.69C1180.86 227.97 1181.16 227.25 1181.7 226.74L1141.92 179.31C1141.84 179.35 1141.77 179.39 1141.71 179.43C1141.35 179.55 1140.96 179.64 1140.6 179.64L1137.42 228.45ZM1178.52 280.35C1178.84 280.43 1179.14 280.55 1179.42 280.71L1203.03 243.45L1186.41 231.18C1186.08 231.54 1185.69 231.84 1185.18 232.05C1184.79 232.2 1184.34 232.29 1183.95 232.26L1178.52 280.35ZM1180.92 284.16L1242.09 298.59L1247.61 279.96C1246.8 279.63 1246.14 279 1245.78 278.13C1245.72 277.93 1245.67 277.73 1245.63 277.53L1180.98 283.71C1180.98 283.87 1180.96 284.02 1180.92 284.16ZM1228.89 345.27C1229.43 345.48 1229.88 345.81 1230.27 346.26L1240.89 339.12L1283.04 310.77C1282.96 310.65 1282.9 310.53 1282.86 310.41C1282.65 309.87 1282.59 309.3 1282.65 308.76L1242.51 299.28L1228.89 345.27ZM1230.57 349.89L1247.91 361.26L1283.73 311.67C1283.59 311.55 1283.46 311.42 1283.34 311.28L1230.57 346.74C1230.65 346.86 1230.71 346.99 1230.75 347.13C1231.14 348.06 1231.02 349.08 1230.57 349.89ZM1218.45 403.08C1218.72 403.38 1218.96 403.74 1219.14 404.16C1219.28 404.52 1219.35 404.88 1219.35 405.24L1299.12 397.38C1299.12 396.84 1299.27 396.3 1299.51 395.85L1248.06 362.07L1218.45 403.08ZM1273.26 434.73L1300.17 399.72C1299.84 399.42 1299.54 399 1299.36 398.55C1299.28 398.35 1299.23 398.16 1299.21 397.98L1219.32 405.84C1219.26 406.23 1219.14 406.62 1218.93 406.98L1273.26 434.73ZM1273.8 435L1301.25 449.04C1301.61 448.35 1302.21 447.81 1302.96 447.51C1303.1 447.45 1303.25 447.4 1303.41 447.36L1302.18 400.59C1301.64 400.53 1301.13 400.38 1300.65 400.08L1273.8 435ZM1306.08 447.9L1336.23 417.03C1336.01 416.77 1335.83 416.46 1335.69 416.1C1335.39 415.32 1335.39 414.51 1335.66 413.79L1314.27 403.41L1304.82 447.36C1305.27 447.45 1305.69 447.63 1306.08 447.9ZM1329 337.05C1328.84 337.07 1328.68 337.07 1328.52 337.05L1314.39 402.81L1335.93 413.25C1336.29 412.65 1336.83 412.17 1337.52 411.9C1337.68 411.84 1337.85 411.79 1338.03 411.75L1329 337.05ZM1251.69 278.46C1251.61 278.58 1251.53 278.69 1251.45 278.79L1283.64 306.84C1283.94 306.54 1284.3 306.33 1284.72 306.15C1285.83 305.73 1287.03 305.94 1287.93 306.63L1294.47 299.79C1294.23 299.52 1294.02 299.22 1293.9 298.86C1293.6 298.14 1293.6 297.36 1293.81 296.67L1251.69 278.46ZM1287.84 172.2C1287.27 171.93 1286.76 171.48 1286.43 170.88L1237.62 193.17C1238.19 194.79 1237.35 196.62 1235.73 197.25C1235.61 197.29 1235.5 197.33 1235.4 197.37L1248.6 273.66C1248.98 273.62 1249.35 273.65 1249.71 273.75L1287.84 172.2ZM1182.24 89.8203L1218.42 161.58L1286.07 168.66C1286.15 168.28 1286.29 167.93 1286.49 167.61L1182.24 89.8203ZM1150.26 43.9203C1150.12 44.0003 1149.98 44.0703 1149.84 44.1303C1149.27 44.3703 1148.67 44.4003 1148.13 44.3103L1139.22 78.6303L1177.08 84.9603C1177.23 84.3303 1177.59 83.7603 1178.1 83.3103L1150.26 43.9203ZM1177.77 -16.1397L1142.1 -17.6697L1148.55 37.8603C1149 37.8603 1149.45 37.9503 1149.84 38.1003L1177.77 -16.1397ZM1134.9 -78.5697C1136.28 -78.6297 1137.57 -77.8498 1138.11 -76.4997C1138.62 -75.1797 1138.23 -73.7697 1137.24 -72.8697L1177.74 -17.6397L1159.2 -118.29C1158.63 -118.23 1158.09 -118.32 1157.58 -118.56L1134.9 -78.5697ZM1043.67 -79.1397C1044.24 -78.7797 1044.69 -78.2698 1044.96 -77.6098C1045.06 -77.2898 1045.13 -76.9798 1045.17 -76.6798L1048.65 -76.6197L1067.79 -125.52L1043.67 -79.1397ZM989.818 -34.5897C990.418 -34.4398 990.958 -34.1397 991.378 -33.6898L1017.09 -55.6497L998.518 -77.8197C998.318 -77.6797 998.098 -77.5598 997.858 -77.4598C997.408 -77.2798 996.928 -77.2197 996.478 -77.2497L989.818 -34.5897ZM949.378 -20.5797L988.468 -28.2297C987.388 -28.4397 986.458 -29.1297 986.038 -30.2097L949.378 -20.5797ZM808.378 11.0403C808.438 11.1403 808.488 11.2503 808.528 11.3703C808.768 12.0003 808.798 12.6903 808.678 13.2903L887.758 39.2703L873.178 -28.8597C872.068 -28.7097 870.958 -29.1897 870.268 -30.0297L808.378 11.0403ZM894.808 80.0703C895.138 79.6503 895.588 79.3203 896.128 79.1103C896.188 79.0903 896.248 79.0703 896.308 79.0502L887.938 39.9603L808.498 13.8603C808.438 14.0003 808.358 14.1403 808.258 14.2803L894.808 80.0703ZM929.398 55.8603C929.298 55.6803 929.208 55.4903 929.128 55.2903C928.888 54.6903 928.858 54.0603 928.978 53.4603L888.598 40.1703L896.908 78.9003C897.988 78.7803 899.068 79.1703 899.758 79.9803L929.398 55.8603ZM1005.27 112.62C1005.6 112.29 1005.99 112.05 1006.44 111.87C1006.72 111.75 1007.01 111.68 1007.31 111.66V44.2803L935.398 53.9703C935.428 54.7203 935.218 55.4102 934.798 56.0103L1005.27 112.62ZM1087.65 184.08L1071.54 224.82L1097.52 180.48L1091.79 180.99C1091.79 182.28 1091.01 183.51 1089.75 183.99C1089.03 184.26 1088.31 184.29 1087.65 184.08ZM1132.14 261.09C1132.5 260.55 1133.01 260.1 1133.67 259.86C1134.03 259.71 1134.39 259.65 1134.78 259.65L1136.76 229.02L1073.07 228.66C1073.03 228.98 1072.95 229.29 1072.83 229.59L1132.14 261.09ZM1174.98 281.82C1175.31 281.22 1175.88 280.74 1176.57 280.47C1177.02 280.29 1177.47 280.23 1177.92 280.23L1183.32 232.17C1182.6 232.02 1181.97 231.63 1181.49 231.09L1137.69 261.3C1137.77 261.42 1137.83 261.55 1137.87 261.69C1138.2 262.47 1138.17 263.28 1137.9 264L1174.98 281.82ZM1225.98 345.57C1226.16 345.45 1226.36 345.35 1226.58 345.27C1227.18 345.03 1227.78 345 1228.35 345.09L1241.94 299.13L1180.77 284.7C1180.59 285.15 1180.32 285.57 1179.93 285.9L1225.98 345.57ZM1217.13 402.24C1217.45 402.34 1217.75 402.49 1218.03 402.69L1247.61 361.74L1230.27 350.37C1229.94 350.79 1229.49 351.12 1228.98 351.33C1228.44 351.51 1227.9 351.57 1227.36 351.51L1217.13 402.24ZM1300.95 451.02C1300.89 450.54 1300.92 450.06 1301.07 449.61L1273.44 435.48L1254.96 459.54C1255.26 459.84 1255.5 460.2 1255.68 460.62C1255.74 460.78 1255.79 460.95 1255.83 461.13L1300.95 451.02Z" fill="#00A8E8"/>
<g style="mix-blend-mode:screen">
<path d="M834.537 77.2197C836.577 73.4697 841.287 72.0597 845.067 74.0997C848.847 76.1397 850.227 80.8797 848.187 84.6297C846.147 88.4097 841.437 89.7897 837.657 87.7497C833.907 85.7097 832.497 80.9997 834.537 77.2197Z" fill="url(#paint0_radial_83479_2973)"/>
</g>
<g style="mix-blend-mode:screen">
<path d="M1118.58 13.8302C1120.62 10.0502 1125.33 8.67023 1129.11 10.7102C1132.86 12.7502 1134.27 17.4602 1132.23 21.2402C1130.19 24.9902 1125.48 26.4002 1121.7 24.3602C1117.92 22.3202 1116.54 17.6102 1118.58 13.8302Z" fill="url(#paint1_radial_83479_2973)"/>
</g>
<g style="mix-blend-mode:screen">
<path d="M1118.13 279.721C1120.17 275.971 1124.88 274.561 1128.66 276.601C1132.44 278.641 1133.82 283.351 1131.78 287.131C1129.74 290.911 1125.03 292.291 1121.25 290.251C1117.5 288.211 1116.09 283.501 1118.13 279.721Z" fill="url(#paint2_radial_83479_2973)"/>
</g>
<g style="mix-blend-mode:screen">
<path d="M851.397 17.2496C852.417 15.3596 854.787 14.6696 856.647 15.6896C858.537 16.7096 859.257 19.0496 858.207 20.9396C857.187 22.8296 854.847 23.5196 852.957 22.4996C851.067 21.4796 850.377 19.1396 851.397 17.2496Z" fill="url(#paint3_radial_83479_2973)"/>
</g>
<g style="mix-blend-mode:screen">
<path d="M1113.78 106.35C1114.8 104.49 1117.17 103.77 1119.03 104.79C1120.92 105.81 1121.61 108.18 1120.59 110.07C1119.57 111.96 1117.23 112.65 1115.34 111.63C1113.45 110.61 1112.76 108.24 1113.78 106.35Z" fill="url(#paint4_radial_83479_2973)"/>
</g>
<g style="mix-blend-mode:screen">
<path d="M1053.36 242.94C1054.38 241.05 1056.75 240.36 1058.64 241.38C1060.53 242.4 1061.22 244.77 1060.2 246.63C1059.18 248.52 1056.81 249.24 1054.92 248.19C1053.06 247.17 1052.34 244.83 1053.36 242.94Z" fill="url(#paint5_radial_83479_2973)"/>
</g>
<g style="mix-blend-mode:screen">
<path d="M957.299 9.39119C958.319 7.50119 960.659 6.81119 962.549 7.83119C964.439 8.85119 965.129 11.2212 964.109 13.1112C963.089 14.9712 960.749 15.6912 958.859 14.6712C956.969 13.6512 956.279 11.2812 957.299 9.39119Z" fill="url(#paint6_radial_83479_2973)"/>
</g>
<g style="mix-blend-mode:screen">
<path d="M1035.87 138.991C1036.89 137.101 1039.23 136.411 1041.12 137.431C1043.01 138.451 1043.7 140.821 1042.68 142.711C1041.66 144.571 1039.32 145.291 1037.43 144.271C1035.54 143.251 1034.85 140.881 1035.87 138.991Z" fill="url(#paint7_radial_83479_2973)"/>
</g>
<g style="mix-blend-mode:screen">
<path d="M1015.74 286.05C1016.76 284.16 1019.1 283.47 1020.99 284.49C1022.88 285.51 1023.57 287.88 1022.55 289.77C1021.53 291.63 1019.19 292.35 1017.3 291.33C1015.41 290.31 1014.72 287.94 1015.74 286.05Z" fill="url(#paint8_radial_83479_2973)"/>
</g>
<g style="mix-blend-mode:screen">
<path d="M1018.23 27.1197C1019.25 25.2297 1021.59 24.5397 1023.48 25.5597C1025.37 26.5797 1026.06 28.9197 1025.04 30.8097C1024.02 32.6997 1021.65 33.3897 1019.79 32.3697C1017.9 31.3497 1017.21 29.0097 1018.23 27.1197Z" fill="url(#paint9_radial_83479_2973)"/>
</g>
</g>
</g>
<g opacity="0.2">
<mask id="mask1_83479_2973" style="mask-type:luminance" maskUnits="userSpaceOnUse" x="0" y="29" width="300" height="300">
<path d="M0 29H300V329H0V29Z" fill="white"/>
</mask>
<g mask="url(#mask1_83479_2973)">
<g opacity="0.3">
<path fill-rule="evenodd" clip-rule="evenodd" d="M-279.101 184.425C-277.601 182.355 -274.721 181.905 -272.651 183.405C-271.841 183.975 -271.271 184.785 -271.001 185.655L-207.191 168.645C-207.091 168.485 -206.991 168.335 -206.891 168.195C-206.501 167.625 -205.991 167.205 -205.421 166.875L-254.321 65.8047C-255.761 66.4048 -257.441 66.2547 -258.791 65.2647C-260.861 63.7647 -261.311 60.8847 -259.811 58.8147C-258.311 56.7448 -255.401 56.2947 -253.361 57.7947C-252.491 58.4247 -251.921 59.2648 -251.651 60.2248L-175.751 42.9147C-175.931 41.7448 -175.691 40.4847 -174.911 39.4648C-173.921 38.0847 -172.301 37.4248 -170.711 37.5748L-161.591 -17.0853C-162.191 -17.2353 -162.731 -17.4753 -163.271 -17.8652C-165.341 -19.3652 -165.791 -22.2752 -164.291 -24.3152C-162.791 -26.3853 -159.881 -26.8653 -157.811 -25.3353C-156.521 -24.4052 -155.861 -22.9352 -155.921 -21.4352L-94.7812 -15.2852C-94.6612 -15.9753 -94.3912 -16.6353 -93.9412 -17.2353C-92.5912 -19.1252 -90.0412 -19.6653 -88.0312 -18.6152L-57.2512 -73.4553C-57.2712 -73.4753 -57.2912 -73.4853 -57.3112 -73.4853C-59.3812 -74.9853 -59.8312 -77.8952 -58.3312 -79.9652C-56.8312 -82.0352 -53.9212 -82.4853 -51.8512 -80.9853C-51.4712 -80.6852 -51.1412 -80.3452 -50.8612 -79.9652L-10.4212 -104.235C-11.2012 -105.765 -11.1412 -107.625 -10.0612 -109.095C-8.56125 -111.165 -5.68124 -111.615 -3.61124 -110.115C-1.54123 -108.615 -1.09122 -105.765 -2.53122 -103.695L44.7788 -65.4452C46.3688 -67.0352 48.9188 -67.2753 50.7788 -65.9253C52.8488 -64.4253 53.2988 -61.5153 51.7988 -59.4753C51.4088 -58.9053 50.8988 -58.4853 50.3588 -58.1552L103.039 59.2947C104.449 58.7547 106.069 58.9348 107.389 59.8647C109.459 61.3947 109.909 64.2747 108.409 66.3447C106.909 68.4147 103.999 68.8647 101.929 67.3647C101.089 66.7347 100.519 65.8647 100.219 64.9348L-9.94122 89.6248C-9.92123 89.8448 -9.91122 90.0747 -9.91122 90.3147L39.1988 94.5748C39.3188 93.9448 39.5888 93.3147 39.9788 92.7447C41.4788 90.6747 44.3888 90.2248 46.4588 91.7248C48.5288 93.2248 48.9788 96.1348 47.4788 98.2047L47.6588 97.9648L163.339 195.675C164.899 194.055 167.479 193.785 169.369 195.135C170.389 195.885 170.989 196.905 171.199 198.045L234.019 190.395C233.959 189.375 234.259 188.295 234.919 187.395C236.419 185.355 239.299 184.875 241.369 186.375C243.439 187.905 243.889 190.785 242.389 192.855C241.789 193.695 240.919 194.265 240.019 194.535L262.099 287.565C263.299 287.355 264.559 287.625 265.609 288.375C267.679 289.875 268.129 292.785 266.629 294.855C265.969 295.755 265.039 296.325 264.049 296.595L275.269 354.045C276.409 353.895 277.579 354.165 278.599 354.885C280.669 356.385 281.119 359.265 279.619 361.335C278.089 363.405 275.209 363.855 273.139 362.355C271.849 361.425 271.189 359.925 271.249 358.425L203.089 348.585C202.939 349.185 202.699 349.815 202.279 350.355C200.779 352.425 197.899 352.875 195.829 351.375C195.629 351.215 195.439 351.045 195.259 350.865L136.189 401.955C137.389 403.545 137.479 405.795 136.249 407.475C134.749 409.545 131.839 409.995 129.769 408.495C127.699 406.995 127.249 404.085 128.749 402.045C129.289 401.325 129.949 400.815 130.699 400.485L103.249 321.015C101.929 321.405 100.429 321.225 99.2288 320.325C97.6988 319.215 97.0688 317.385 97.4288 315.645L7.00876 292.395C6.86877 292.855 6.64877 293.285 6.34879 293.685C4.84879 295.755 1.93878 296.205 -0.101227 294.705C-2.1712 293.205 -2.65121 290.295 -1.12122 288.225C-0.961212 288.005 -0.791229 287.805 -0.611206 287.625L-44.8612 235.155C-46.4212 236.325 -48.6412 236.385 -50.3212 235.185C-51.1912 234.555 -51.7612 233.685 -52.0312 232.725L-136.961 251.745L-136.451 252.375L-137.561 251.865L-137.921 251.955L-137.861 251.715L-271.331 189.375C-271.411 189.535 -271.511 189.695 -271.631 189.855C-273.131 191.925 -276.041 192.375 -278.081 190.875C-280.151 189.375 -280.631 186.495 -279.101 184.425ZM-126.881 200.895L-198.941 172.845C-199.081 173.125 -199.231 173.385 -199.391 173.625C-199.571 173.865 -199.771 174.085 -199.991 174.285L-137.681 250.875L-126.881 200.895ZM-173.321 52.0348L-201.731 166.485C-201.391 166.605 -201.061 166.755 -200.741 166.935L-200.531 166.875L-116.321 48.2248C-117.191 47.5048 -117.761 46.5147 -117.941 45.4648L-173.321 52.0348ZM-117.161 41.8947C-116.921 41.5747 -116.651 41.2948 -116.351 41.0547L-133.841 16.4548L-167.231 39.7647C-166.811 40.4847 -166.601 41.2648 -166.571 42.0748L-118.031 44.1447C-117.941 43.3647 -117.671 42.5847 -117.161 41.8947ZM-200.171 167.385C-199.511 167.925 -199.061 168.615 -198.791 169.365L-123.041 146.655L-114.131 49.2148C-114.731 49.0948 -115.301 48.8848 -115.841 48.5547L-200.171 167.385ZM-109.121 46.3047L-50.0812 73.6048L-37.8712 31.2448C-38.2712 31.1047 -38.6512 30.9047 -39.0112 30.6447C-39.8812 30.0147 -40.4512 29.1447 -40.7212 28.2148L-108.881 43.9048C-108.731 44.7148 -108.821 45.5247 -109.121 46.3047ZM-198.761 172.305L-126.791 200.325L-121.991 178.125C-123.581 179.775 -126.161 180.045 -128.051 178.665C-129.281 177.765 -129.911 176.385 -129.941 175.005L-198.581 171.525C-198.621 171.785 -198.681 172.045 -198.761 172.305ZM-198.551 170.925H-198.281L-129.911 174.405C-129.821 173.625 -129.551 172.875 -129.071 172.215C-128.141 170.925 -126.671 170.265 -125.201 170.295L-123.101 147.315L-198.641 169.965C-198.581 170.285 -198.551 170.605 -198.551 170.925ZM-121.841 171.885L-69.8812 132.435C-70.0812 132.135 -70.2412 131.825 -70.3612 131.505L-122.471 147.135L-124.601 170.355C-123.911 170.475 -123.221 170.745 -122.591 171.195C-122.311 171.395 -122.061 171.625 -121.841 171.885ZM-121.451 172.365C-121.191 172.765 -121.001 173.195 -120.881 173.655L-60.5812 160.575L-65.2312 134.445C-66.4312 134.655 -67.6912 134.415 -68.7412 133.635C-69.0412 133.435 -69.3012 133.195 -69.5212 132.915L-121.451 172.365ZM-59.9812 160.455L11.2088 145.035C11.1488 144.635 11.1388 144.235 11.1788 143.835L-61.5112 130.995C-61.6312 131.565 -61.9012 132.135 -62.2612 132.615C-62.8612 133.455 -63.7012 134.025 -64.6312 134.325L-59.9812 160.455ZM-18.8512 88.6947L-49.6912 74.4147L-64.4512 125.535C-64.0512 125.675 -63.6612 125.875 -63.2812 126.135C-63.1612 126.235 -63.0412 126.345 -62.9212 126.465L-18.2812 93.1048C-19.2112 91.8148 -19.4212 90.1647 -18.8512 88.6947ZM11.2688 143.235C11.3888 142.665 11.6588 142.125 12.0188 141.615C12.3488 141.135 12.7988 140.745 13.2788 140.445L-3.28122 110.355L-61.5412 128.775C-61.4212 129.235 -61.3712 129.695 -61.3912 130.155L11.2688 143.235ZM-3.58121 109.845L-12.1312 94.3047C-13.6912 95.2647 -15.7012 95.2347 -17.2612 94.0947C-17.4812 93.9347 -17.6912 93.7548 -17.8912 93.5547L-62.5012 126.915C-62.1712 127.305 -61.9012 127.755 -61.7212 128.235L-3.58121 109.845ZM-16.3012 86.1147L-35.0812 31.3647C-35.7712 31.5447 -36.5512 31.5748 -37.2712 31.4248L-49.5112 73.8748L-18.5812 88.1548C-18.4812 87.9748 -18.3712 87.8047 -18.2512 87.6447C-17.7412 86.9247 -17.0512 86.4147 -16.3012 86.1147ZM-109.361 46.8748C-109.441 47.0548 -109.541 47.2248 -109.661 47.3848C-110.021 47.8647 -110.441 48.2548 -110.921 48.5547L-67.9912 125.715C-67.0612 125.295 -66.0112 125.175 -65.0212 125.385L-50.2312 74.2047L-109.361 46.8748ZM-111.461 48.8248C-112.091 49.1548 -112.841 49.3048 -113.561 49.2748L-122.411 146.505L-70.5112 130.935C-70.8112 129.675 -70.5712 128.295 -69.7612 127.185C-69.4012 126.705 -68.9812 126.315 -68.5312 126.015L-111.461 48.8248ZM-52.0312 230.055L-126.341 201.135L-137.141 251.175L-52.1812 232.155C-52.3012 231.465 -52.2412 230.745 -52.0312 230.055ZM-51.5212 228.975L-121.391 178.155L-126.221 200.535L-51.8212 229.485C-51.7212 229.305 -51.6212 229.135 -51.5212 228.975ZM-48.7312 226.965L-60.4612 161.175L-120.761 174.225C-120.581 175.305 -120.791 176.415 -121.421 177.405L-51.1612 228.495C-50.5312 227.715 -49.6612 227.175 -48.7312 226.965ZM12.7988 147.885C12.0488 147.285 11.5388 146.475 11.2988 145.605L-59.8912 161.055L-48.1312 226.845C-47.1112 226.725 -46.0612 226.965 -45.1612 227.535L12.7988 147.885ZM-44.6512 227.895C-43.6312 228.735 -43.0612 229.905 -42.9712 231.135L7.66876 231.195L15.0488 148.905C14.4488 148.815 13.8488 148.605 13.3088 148.245L-44.6512 227.895ZM8.23877 231.195L88.1588 231.285C88.1588 230.325 88.4288 229.365 89.0288 228.525C89.0888 228.445 89.1588 228.365 89.2388 228.285L18.5588 148.005C17.7188 148.665 16.6688 148.995 15.6188 148.965L8.23877 231.195ZM2.68878 286.335L7.60876 231.795L-43.0012 231.735C-43.0612 232.575 -43.3312 233.415 -43.8712 234.165C-44.0312 234.385 -44.2112 234.585 -44.4112 234.765L-0.161224 287.235C0.678772 286.635 1.69879 286.335 2.68878 286.335ZM63.5888 250.335L88.8188 233.655C88.4888 233.115 88.2788 232.485 88.1888 231.855L8.20877 231.795L3.28879 286.395C4.00879 286.515 4.69879 286.785 5.2988 287.235C5.67877 287.515 6.00879 287.825 6.28879 288.165L63.5888 250.335ZM7.09879 289.995L97.2188 276.495L92.7188 235.875C91.7888 235.875 90.8588 235.605 90.0488 235.005C89.7088 234.765 89.4188 234.485 89.1788 234.165L11.1788 285.645L6.58878 288.675C6.82877 289.095 6.99878 289.535 7.09879 289.995ZM96.4988 233.985C96.4788 234.025 96.4488 234.075 96.4088 234.135L138.229 265.695C139.429 264.375 141.259 263.895 142.909 264.375L161.569 212.175L97.2788 230.295C97.5488 231.555 97.3088 232.875 96.4988 233.985ZM106.429 317.655L138.349 327.945L142.729 273.315C142.069 273.465 141.379 273.465 140.689 273.345L125.929 289.965L105.199 313.365C106.339 314.505 106.789 316.125 106.429 317.655ZM95.9888 234.555C95.2688 235.305 94.3088 235.725 93.3188 235.845L97.8188 276.405L137.359 270.495C136.789 269.115 136.939 267.495 137.839 266.175L95.9888 234.555ZM101.179 312.015L97.3088 277.095L7.18878 290.565C7.22879 290.985 7.20877 291.405 7.12878 291.825L97.5488 315.075C97.7088 314.655 97.9188 314.255 98.1788 313.875C98.9288 312.855 100.009 312.225 101.179 312.015ZM104.659 312.855C104.679 312.875 104.709 312.905 104.749 312.945L121.459 294.075L140.059 273.135C139.659 272.995 139.279 272.795 138.919 272.535C138.379 272.115 137.929 271.605 137.629 271.065L97.8788 277.005L101.779 311.985C102.769 311.925 103.789 312.225 104.659 312.855ZM132.559 400.125L138.289 328.545L106.249 318.195C106.109 318.595 105.919 318.965 105.679 319.305C105.169 319.995 104.509 320.505 103.789 320.835L131.239 400.305C131.679 400.185 132.119 400.125 132.559 400.125ZM194.839 350.415C193.999 349.305 193.699 347.835 194.029 346.485L138.889 328.725L133.159 400.185C133.879 400.275 134.569 400.545 135.199 401.025C135.399 401.165 135.589 401.325 135.769 401.505L194.839 350.415ZM195.619 344.025L164.239 299.865L144.649 272.295C144.269 272.635 143.839 272.895 143.359 273.075L138.949 328.095L194.239 345.915C194.379 345.575 194.559 345.235 194.779 344.895C195.019 344.575 195.299 344.285 195.619 344.025ZM199.369 343.095L214.639 283.155L146.119 269.955C145.999 270.495 145.759 271.035 145.399 271.515C145.299 271.635 145.199 271.755 145.099 271.875L196.099 343.695C197.089 343.095 198.259 342.885 199.369 343.095ZM201.829 344.385L259.159 294.915C258.439 293.955 258.109 292.725 258.259 291.555L215.239 283.275L199.969 343.215C200.419 343.365 200.839 343.575 201.259 343.875C201.459 344.035 201.649 344.205 201.829 344.385ZM260.119 295.875C259.919 295.715 259.729 295.545 259.549 295.365L202.219 344.835C202.909 345.735 203.209 346.875 203.149 347.985L271.279 357.825C271.399 357.135 271.669 356.475 272.089 355.905C272.749 355.005 273.679 354.405 274.669 354.165L263.449 296.715C262.309 296.865 261.139 296.595 260.119 295.875ZM237.769 194.685L215.389 282.675L258.379 290.955C258.529 290.415 258.769 289.875 259.099 289.395C259.729 288.555 260.569 287.985 261.499 287.715L239.389 194.685C238.879 194.775 238.309 194.775 237.769 194.685ZM145.429 266.115C146.089 267.075 146.389 268.245 146.239 269.355L214.789 282.555L237.199 194.535C236.749 194.385 236.299 194.175 235.909 193.875C235.649 193.695 235.419 193.495 235.219 193.275L145.429 266.115ZM234.289 191.655L162.289 211.965L143.509 264.555C143.809 264.675 144.099 264.835 144.379 265.035C144.639 265.215 144.869 265.415 145.069 265.635L234.859 192.795C234.619 192.435 234.429 192.055 234.289 191.655ZM165.379 203.325L162.559 211.275L234.109 191.085C234.109 191.045 234.109 191.015 234.109 190.995L171.259 198.615C171.319 199.665 171.049 200.715 170.389 201.615C169.219 203.235 167.209 203.865 165.379 203.325ZM162.559 201.015L97.1288 229.665C97.1488 229.685 97.1588 229.695 97.1588 229.695L161.839 211.455L164.809 203.145C164.509 203.005 164.219 202.835 163.939 202.635C163.339 202.185 162.859 201.645 162.559 201.015ZM45.3788 99.7947L91.1888 226.905C92.5988 226.395 94.2188 226.545 95.5088 227.505C96.1088 227.925 96.5888 228.495 96.8888 229.125L162.289 200.475C161.809 199.065 161.959 197.445 162.919 196.155C162.919 196.155 162.919 196.145 162.919 196.125L47.2688 98.4447C46.7588 99.0747 46.0988 99.5247 45.3788 99.7947ZM41.3888 99.4648L18.2888 140.445C18.3488 140.485 18.4188 140.525 18.4988 140.565C20.5388 142.065 21.0188 144.975 19.5188 147.045C19.3588 147.245 19.1988 147.425 19.0388 147.585L78.4388 215.085L89.6588 227.835C89.9588 227.555 90.2888 227.325 90.6488 227.145L44.7788 99.9748C43.6688 100.245 42.4388 100.095 41.3888 99.4648ZM-2.71124 110.145L13.7888 140.115C15.0488 139.545 16.4888 139.545 17.7788 140.145L40.8788 99.1048C40.0988 98.5048 39.5888 97.7248 39.3188 96.8548L-2.71124 110.145ZM-10.8112 93.0447C-11.0512 93.3847 -11.3312 93.6747 -11.6512 93.9147L-3.01123 109.605L39.1388 96.2548C39.0788 95.8947 39.0588 95.5348 39.0788 95.1748L-9.97122 90.9147C-10.0612 91.6647 -10.3312 92.3847 -10.8112 93.0447ZM46.5488 -57.7952L-12.5212 86.1748C-12.2812 86.2948 -12.0512 86.4347 -11.8312 86.5947C-10.9612 87.1947 -10.3912 88.0648 -10.1212 89.0247L100.069 64.3347C99.8888 63.1648 100.159 61.9348 100.909 60.8847C101.329 60.2848 101.869 59.8347 102.469 59.5348L49.7888 -57.9153C48.7688 -57.4952 47.6288 -57.4652 46.5488 -57.7952ZM-32.9212 23.7148C-31.4512 25.3047 -31.2412 27.7647 -32.5612 29.5947C-33.0712 30.2847 -33.7612 30.7948 -34.5412 31.1248L-15.7612 85.8748C-14.8912 85.6348 -13.9612 85.6347 -13.0612 85.9348L46.0088 -58.0352C45.7688 -58.1552 45.5388 -58.2953 45.3188 -58.4553C45.2188 -58.5352 45.1188 -58.6152 45.0188 -58.6952L-32.9212 23.7148ZM-53.6812 -72.7053L-36.8212 22.2747C-35.7112 22.1547 -34.5712 22.4247 -33.5812 23.1147C-33.5012 23.1747 -33.4312 23.2448 -33.3712 23.3248L44.5988 -59.0852C43.1588 -60.6753 42.9788 -63.1053 44.2988 -64.9052C44.3188 -64.9453 44.3388 -64.9753 44.3588 -64.9952L-2.9512 -103.215C-4.51123 -101.535 -7.15121 -101.235 -9.07123 -102.615C-9.49121 -102.945 -9.85123 -103.305 -10.1512 -103.725L-50.5612 -79.4553C-49.7212 -77.9553 -49.7812 -76.0052 -50.8612 -74.5052C-51.5812 -73.5453 -52.5712 -72.9453 -53.6812 -72.7053ZM-111.161 40.6048C-111.021 40.6848 -110.871 40.7748 -110.711 40.8748C-109.871 41.5048 -109.301 42.3748 -109.001 43.3047L-40.8712 27.6147C-41.0512 26.4447 -40.8112 25.1848 -40.0612 24.1348C-39.3712 23.2347 -38.4412 22.6347 -37.4212 22.3647L-54.2512 -72.6152C-55.0312 -72.5552 -55.7812 -72.7053 -56.5012 -73.0052L-111.161 40.6048ZM-87.5512 -18.2852C-87.5312 -18.2852 -87.5212 -18.2753 -87.5212 -18.2552C-86.0512 -17.2053 -85.3912 -15.4353 -85.6612 -13.7552L-59.1712 -68.8352L-87.5512 -18.2852ZM-91.4512 -10.0652L-110.081 36.9147L-86.8012 -11.4153C-88.0012 -10.0952 -89.8012 -9.61523 -91.4512 -10.0652ZM-133.361 16.1247L-115.871 40.6947C-114.731 39.9747 -113.321 39.8247 -112.031 40.2148L-92.0212 -10.2452C-92.3612 -10.3853 -92.6712 -10.5652 -92.9512 -10.7852C-93.2512 -11.0052 -93.5212 -11.2552 -93.7612 -11.5352L-133.361 16.1247ZM-157.661 -18.0153L-133.721 15.6447L-94.1212 -11.9853C-94.6312 -12.7953 -94.9012 -13.7253 -94.8712 -14.6553L-156.011 -20.8353C-156.131 -20.1453 -156.401 -19.4553 -156.821 -18.8553C-157.061 -18.5352 -157.341 -18.2552 -157.661 -18.0153ZM-170.141 37.6947C-169.571 37.8147 -169.001 38.0847 -168.491 38.4447C-168.151 38.7047 -167.851 38.9948 -167.591 39.3148L-134.201 15.9747L-158.141 -17.6553C-159.011 -17.1153 -160.031 -16.8752 -161.021 -16.9952L-162.101 -10.6353L-170.141 37.6947ZM-172.001 46.7548L-173.171 51.4348L-118.031 44.9248C-118.031 44.8648 -118.031 44.8148 -118.031 44.7748L-166.601 42.7048C-166.691 43.4848 -166.961 44.2648 -167.441 44.9248C-168.521 46.4248 -170.321 47.0547 -172.001 46.7548ZM-250.511 60.6147L-173.801 51.5247L-172.601 46.6348C-173.051 46.4847 -173.501 46.2448 -173.921 45.9447C-174.761 45.3447 -175.331 44.4747 -175.631 43.5447L-250.511 60.6147ZM-204.881 166.635C-204.071 166.335 -203.201 166.215 -202.331 166.395L-173.951 52.1248L-251.441 61.3047C-251.381 62.3548 -251.681 63.4048 -252.311 64.2747C-252.731 64.8448 -253.241 65.2647 -253.781 65.5947L-204.881 166.635ZM-271.061 188.835L-138.581 250.725L-200.471 174.675C-202.031 175.815 -204.221 175.845 -205.871 174.645C-207.581 173.415 -208.181 171.255 -207.521 169.365L-270.851 186.255C-270.671 187.095 -270.731 187.995 -271.061 188.835Z" fill="#00A8E8"/>
</g>
<path fill-rule="evenodd" clip-rule="evenodd" d="M-199.918 -88.8102C-198.778 -89.2603 -197.548 -89.0203 -196.678 -88.3303L-166.528 -119.17C-166.798 -119.47 -167.038 -119.83 -167.188 -120.22C-167.848 -121.9 -167.038 -123.76 -165.358 -124.42C-163.678 -125.08 -161.788 -124.27 -161.128 -122.59C-161.128 -122.55 -161.118 -122.51 -161.098 -122.47L-115.888 -132.61C-115.918 -133.93 -115.108 -135.19 -113.818 -135.7C-112.138 -136.33 -110.278 -135.52 -109.618 -133.84C-109.108 -132.58 -109.468 -131.17 -110.398 -130.3L-98.9683 -112.63L-77.3683 -79.2103C-77.3483 -79.2302 -77.3383 -79.2403 -77.3383 -79.2403C-75.6583 -79.9003 -73.7682 -79.0602 -73.1082 -77.4103C-72.4782 -75.7302 -73.2883 -73.8403 -74.9683 -73.1802C-75.4783 -72.9703 -76.0182 -72.9103 -76.5583 -72.9703L-86.7883 -22.2703C-85.8883 -21.9703 -85.1083 -21.3103 -84.7483 -20.3503C-84.2683 -19.0903 -84.5983 -17.7103 -85.4983 -16.8403L-39.4483 42.8597C-39.2883 42.7597 -39.1283 42.6697 -38.9683 42.5897C-37.2883 41.9597 -35.3983 42.7697 -34.7383 44.4497C-34.4383 45.2297 -34.4683 46.0397 -34.7383 46.7597L2.34171 64.5797C2.70172 63.9797 3.24173 63.4997 3.93173 63.2297C5.61172 62.5697 7.50171 63.3797 8.16171 65.0597C8.46173 65.8697 8.43173 66.7397 8.13171 67.4897L67.4417 98.9897C67.7717 98.4497 68.3117 97.9997 68.9717 97.7597C70.6217 97.0997 72.5117 97.9097 73.1717 99.5897C73.8317 101.27 72.9917 103.16 71.3417 103.82C70.6217 104.09 69.9017 104.09 69.2417 103.91L52.8917 145.25C53.5817 145.61 54.1517 146.18 54.4517 146.96C55.0517 148.46 54.4517 150.14 53.1017 150.95L99.0017 246.86L98.7317 246.98C99.8417 246.56 101.012 246.77 101.882 247.43L129.992 216.44C129.722 216.17 129.512 215.84 129.362 215.45C128.702 213.77 129.512 211.88 131.192 211.22C132.872 210.56 134.732 211.4 135.392 213.08C135.812 214.1 135.662 215.18 135.092 216.05L205.592 272.69C205.892 272.39 206.252 272.15 206.642 272C207.932 271.49 209.342 271.85 210.212 272.81L239.882 248.66C239.782 248.5 239.702 248.34 239.642 248.18C238.982 246.5 239.792 244.64 241.472 243.98C243.152 243.32 245.042 244.13 245.702 245.81C246.062 246.74 245.972 247.73 245.522 248.57L332.072 314.36C332.402 314 332.792 313.73 333.272 313.52C334.952 312.86 336.842 313.7 337.502 315.38C338.132 317.03 337.322 318.92 335.642 319.58C334.292 320.12 332.792 319.67 331.922 318.59L270.032 359.66C270.092 359.78 270.152 359.9 270.212 360.02C270.842 361.7 270.032 363.56 268.352 364.22C266.702 364.88 264.812 364.07 264.152 362.39C263.702 361.22 263.972 359.93 264.752 359.06L230.222 322.37C229.982 322.55 229.712 322.7 229.412 322.82C228.272 323.27 227.012 323.03 226.142 322.28L202.472 345.47C202.652 345.71 202.802 345.97 202.922 346.25C203.552 347.93 202.742 349.82 201.062 350.48C199.412 351.11 197.552 350.3 196.862 348.68L154.112 359.87C154.442 361.4 153.632 362.99 152.132 363.56C151.682 363.74 151.202 363.8 150.752 363.77L144.092 406.43C145.082 406.7 145.922 407.39 146.312 408.41C146.972 410.06 146.162 411.95 144.482 412.61C142.802 413.27 140.942 412.46 140.282 410.78C140.132 410.39 140.042 410 140.042 409.61L101.252 406.1C101.072 407.18 100.352 408.11 99.2717 408.56C98.4617 408.86 97.5917 408.83 96.8417 408.53L71.6117 457.04C72.1817 457.4 72.6317 457.94 72.9017 458.6C73.5617 460.25 72.7217 462.14 71.0417 462.8C69.3917 463.46 67.5017 462.65 66.8417 460.97C66.4217 459.92 66.6017 458.78 67.2017 457.91L7.20172 406.76C6.90173 407.06 6.51175 407.3 6.12173 407.45C6.02173 407.49 5.93173 407.52 5.85175 407.54L-17.0683 447.98C-16.5583 448.34 -16.1383 448.82 -15.8983 449.45C-15.2383 451.13 -16.0482 453.02 -17.7283 453.65C-19.4083 454.31 -21.2682 453.5 -21.9283 451.82C-22.5883 450.14 -21.7783 448.28 -20.0983 447.62C-19.9983 447.58 -19.8983 447.54 -19.7983 447.5L-38.5183 345.83H-38.7283L-38.5782 345.5L-38.7883 344.3L-38.3083 344.96L-10.4083 290.72C-10.9482 290.36 -11.3983 289.85 -11.6683 289.19C-12.1783 287.87 -11.7883 286.4 -10.7683 285.53L-38.5782 246.14C-38.7183 246.22 -38.8683 246.29 -39.0283 246.35C-40.6783 247.01 -42.5683 246.2 -43.2283 244.52C-43.8583 242.96 -43.1683 241.19 -41.6983 240.44L-146.818 162.02C-147.148 162.38 -147.568 162.68 -148.048 162.86C-149.728 163.52 -151.618 162.71 -152.278 161.03C-152.908 159.35 -152.098 157.46 -150.418 156.8C-149.758 156.56 -149.038 156.53 -148.378 156.71L-110.248 55.1297C-110.968 54.7997 -111.538 54.1997 -111.868 53.3897C-112.138 52.6697 -112.138 51.8897 -111.928 51.1997L-154.078 33.0197C-154.408 33.6497 -155.008 34.1897 -155.728 34.4597C-157.408 35.1197 -159.298 34.3097 -159.958 32.6297C-160.408 31.4297 -160.108 30.1097 -159.298 29.2397L-186.988 -2.08026C-187.208 -1.90027 -187.458 -1.76025 -187.738 -1.66025C-189.388 -1.00024 -191.278 -1.84027 -191.938 -3.49026C-192.598 -5.17029 -191.758 -7.06027 -190.108 -7.72028C-189.928 -7.78027 -189.758 -7.83026 -189.598 -7.87027L-198.628 -82.5403C-199.948 -82.5103 -201.238 -83.2902 -201.748 -84.6102C-202.408 -86.2902 -201.568 -88.1802 -199.918 -88.8102ZM-132.898 -106.09L-78.5983 -78.3403C-78.3983 -78.5603 -78.1682 -78.7603 -77.9083 -78.9403L-97.9183 -109.9L-110.878 -129.94C-111.058 -129.82 -111.248 -129.72 -111.448 -129.64C-112.498 -129.22 -113.638 -129.4 -114.508 -130L-132.898 -106.09ZM2.64172 68.2997L-41.1583 98.5097C-41.0782 98.6497 -41.0083 98.7897 -40.9483 98.9297C-40.8483 99.2297 -40.7783 99.5297 -40.7383 99.8297L2.64172 100.07L4.62173 69.4397C3.84174 69.3197 3.1517 68.9297 2.64172 68.2997ZM3.18173 100.67L0.0317383 149.54C0.75174 149.66 1.44174 150.02 1.95172 150.59L67.3817 102.44C67.2817 102.3 67.2017 102.14 67.1417 101.96C67.0217 101.66 66.9517 101.36 66.9317 101.06L3.18173 100.67ZM94.8317 405.14C94.9517 403.97 95.7017 402.92 96.8717 402.47C97.3817 402.26 97.9217 402.2 98.4317 402.26L105.542 369.38L91.5617 405.11L94.8317 405.14ZM70.7417 456.62L90.6917 405.68L8.13171 404.72C8.07172 405.29 7.89172 405.8 7.56171 406.25L67.5917 457.4C67.8917 457.13 68.2517 456.89 68.6717 456.71C69.3617 456.44 70.0817 456.44 70.7417 456.62ZM-78.7183 166.88L-93.3582 137.87C-94.8582 138.47 -96.5683 137.84 -97.3483 136.46L-146.188 158.72C-146.068 159.1 -146.008 159.47 -146.008 159.83L-78.7183 166.88ZM-173.698 -74.0503L-165.178 -69.9103C-164.848 -70.5103 -164.278 -70.9902 -163.588 -71.2603C-163.328 -71.3602 -163.068 -71.4303 -162.808 -71.4703L-164.008 -118.18C-164.088 -118.18 -164.158 -118.18 -164.218 -118.18L-173.698 -74.0503ZM-161.848 -63.6703L-157.648 12.8297L-148.558 18.0197C-148.198 17.5097 -147.718 17.1197 -147.088 16.8797C-146.988 16.8397 -146.888 16.7997 -146.788 16.7597L-149.398 2.92972L-161.848 -63.6703ZM-144.238 17.1198L-108.418 -32.4703L-159.838 -66.2203C-160.198 -65.8003 -160.648 -65.4402 -161.188 -65.2303C-161.288 -65.1902 -161.388 -65.1503 -161.488 -65.1102L-155.248 -31.7203L-146.188 16.6697C-145.498 16.6097 -144.808 16.7597 -144.238 17.1198ZM-173.818 -73.4503L-187.918 -7.84027L-163.918 -65.3802C-164.578 -65.7402 -165.118 -66.3102 -165.418 -67.0602C-165.718 -67.8403 -165.688 -68.6503 -165.418 -69.3703L-173.818 -73.4503ZM-185.938 -3.40027L-158.248 12.4698L-162.508 -65.0203C-162.808 -65.0203 -163.098 -65.0703 -163.378 -65.1703L-187.378 -7.60025C-186.718 -7.24026 -186.178 -6.67026 -185.878 -5.92026C-185.548 -5.08026 -185.578 -4.15027 -185.938 -3.40027ZM-186.538 -2.50027L-158.818 28.7897C-158.598 28.6097 -158.358 28.4698 -158.098 28.3698C-157.858 28.2897 -157.618 28.2297 -157.378 28.1897L-158.218 13.1898L-186.238 -2.86026C-186.318 -2.74023 -186.418 -2.62027 -186.538 -2.50027ZM-148.348 22.0097C-148.588 21.7497 -148.778 21.4397 -148.918 21.0797C-149.248 20.2097 -149.188 19.3097 -148.858 18.5297L-157.588 13.5197L-156.778 28.1597C-156.088 28.1897 -155.428 28.4297 -154.888 28.8497L-148.348 22.0097ZM-143.248 21.7697L-111.058 49.8197C-110.758 49.5197 -110.428 49.3097 -110.008 49.1297C-109.408 48.9197 -108.778 48.8597 -108.208 48.9797L-102.688 30.3797L-142.828 20.9297C-142.928 21.2297 -143.068 21.5097 -143.248 21.7697ZM-105.568 52.1597C-105.568 52.7597 -105.748 53.3297 -106.048 53.8397L-63.4783 85.2797L-39.8683 48.0497C-40.2583 47.6897 -40.5883 47.2697 -40.7983 46.7597C-40.8983 46.4997 -40.9583 46.2397 -40.9783 45.9797L-105.568 52.1597ZM98.6717 252.95L82.1717 279.2L91.2617 287.81C91.4617 287.67 91.6817 287.55 91.9217 287.45C92.4317 287.24 92.9417 287.18 93.4517 287.24L99.2417 253.13C99.0417 253.09 98.8517 253.03 98.6717 252.95ZM209.042 278C208.682 278.12 208.292 278.21 207.932 278.21L203.432 318.62L225.032 319.34C225.152 318.35 225.752 317.45 226.652 316.94L209.042 278ZM205.202 276.83L135.362 315.2C135.382 315.24 135.402 315.28 135.422 315.32C135.542 315.64 135.612 315.97 135.632 316.31L202.802 318.59L207.332 278.18C206.462 278.03 205.712 277.55 205.202 276.83ZM-91.2883 135.11L-41.8183 143.84L-44.0983 103.31C-45.0283 103.28 -45.8983 102.86 -46.4983 102.14L-91.6783 133.25C-91.6183 133.37 -91.5583 133.5 -91.4983 133.64C-91.3183 134.12 -91.2583 134.63 -91.2883 135.11ZM-41.1883 143.96L-3.05829 150.68C-2.8783 150.46 -2.66827 150.26 -2.42825 150.08L-42.1483 102.74C-42.3483 102.88 -42.5683 103 -42.8083 103.1C-43.0283 103.18 -43.2583 103.24 -43.4983 103.28L-41.1883 143.96ZM-41.1583 144.59L-39.8383 167.99C-38.7883 168.05 -37.8282 168.59 -37.2582 169.49L-34.3183 167.99L-3.71826 152.45C-3.68826 152.03 -3.56827 151.64 -3.38828 151.25L-41.1583 144.59ZM-36.8683 172.07L-13.8582 180.89L-2.81827 155C-3.11829 154.7 -3.35828 154.34 -3.5083 153.92C-3.60828 153.66 -3.67828 153.4 -3.71826 153.14L-34.0483 168.56L-36.9883 170.06C-36.7183 170.72 -36.7183 171.44 -36.8683 172.07ZM-91.6483 136.4L-42.5082 169.16C-42.1783 168.74 -41.7283 168.44 -41.1883 168.23C-40.9483 168.13 -40.6983 168.06 -40.4383 168.02L-41.7582 144.47L-91.3783 135.71C-91.4383 135.95 -91.5283 136.18 -91.6483 136.4ZM-39.2083 240.2L-14.0983 181.43L-37.0782 172.64C-37.4383 173.36 -38.0383 173.96 -38.8183 174.26C-39.0983 174.38 -39.3783 174.45 -39.6583 174.47L-39.8983 240.08C-39.6583 240.1 -39.4283 240.14 -39.2083 240.2ZM-38.6383 240.44C-38.4183 240.58 -38.2083 240.74 -38.0082 240.92L-17.6983 222.68L13.7117 194.45C13.5517 194.25 13.4317 194.03 13.3517 193.79C13.0817 193.16 13.0517 192.5 13.2017 191.9L-13.5583 181.67L-38.6383 240.44ZM6.33173 401.45L35.0417 354.23L19.1718 351.59C18.9317 352.58 18.2117 353.42 17.2217 353.81C16.7117 353.99 16.1717 354.05 15.6617 353.99L11.9417 372.05L5.88171 401.27C6.04172 401.31 6.19171 401.37 6.33173 401.45ZM60.6317 263.33L37.5617 308.9L54.4217 316.67C54.7817 316.13 55.3217 315.68 55.9517 315.44C56.3417 315.29 56.7317 315.2 57.0917 315.2L61.2617 263.51C61.0417 263.47 60.8317 263.41 60.6317 263.33ZM37.2917 309.44L17.7617 348.02C17.9817 348.16 18.1917 348.33 18.3917 348.53L54.4217 320.21C54.3017 320.03 54.2017 319.84 54.1217 319.64C53.7917 318.83 53.8217 317.96 54.1517 317.21L37.2917 309.44ZM35.3717 353.66L55.2017 321.05C55.0617 320.95 54.9217 320.83 54.7817 320.69L31.6217 338.9L18.7517 349.01C18.8717 349.19 18.9717 349.38 19.0517 349.58C19.2317 350.06 19.2917 350.54 19.2617 350.99L35.3717 353.66ZM36.0017 353.78L103.532 364.97C103.652 364.52 103.862 364.13 104.132 363.77L59.2817 320.9C58.9817 321.14 58.6817 321.35 58.3217 321.47C57.4517 321.83 56.4917 321.74 55.7117 321.38L36.0017 353.78ZM105.812 362.63L97.7117 317.69L60.3617 318.65C60.3317 319.31 60.0917 319.94 59.6717 320.45L104.522 363.32C104.822 363.08 105.122 362.9 105.482 362.75C105.582 362.71 105.692 362.67 105.812 362.63ZM97.6217 317.09L93.3917 293.69C92.3717 293.78 91.3517 293.36 90.6617 292.58L60.0617 317.03C60.1017 317.11 60.1317 317.19 60.1517 317.27C60.2517 317.53 60.3217 317.79 60.3617 318.05L97.6217 317.09ZM90.8117 288.2L81.8717 279.71L59.1017 315.86C59.3417 316.04 59.5517 316.26 59.7317 316.52L90.3317 292.1C90.2517 291.96 90.1817 291.81 90.1217 291.65C89.6117 290.42 89.9417 289.07 90.8117 288.2ZM81.4217 279.29L63.9617 262.76C63.6917 263 63.3617 263.21 63.0017 263.33C62.6117 263.48 62.2517 263.57 61.8617 263.57L57.8717 315.29C58.1317 315.35 58.3717 315.44 58.5917 315.56L81.4217 279.29ZM15.6617 195.71L1.59171 249.92L58.6817 259.46C58.8617 258.83 59.2517 258.23 59.7617 257.78L42.6017 232.37L17.7317 195.53C17.6917 195.55 17.6417 195.56 17.5817 195.56C16.9517 195.83 16.2917 195.86 15.6617 195.71ZM-5.48828 287.03C-5.27829 287.69 -5.30826 288.38 -5.54828 289.01L37.0517 308.63L60.0917 263.06C59.6117 262.73 59.1917 262.31 58.9217 261.77L-5.48828 287.03ZM-7.13828 290.81L15.1517 347.63C15.8417 347.42 16.5917 347.48 17.2217 347.72L36.7517 309.14L-5.78827 289.55C-6.08829 290.09 -6.56827 290.54 -7.13828 290.81ZM14.3117 347.99L-1.37827 347.33L4.89172 401.12C5.03171 401.12 5.16171 401.12 5.28174 401.12L12.3617 367.01L15.0917 353.84C14.1917 353.57 13.3817 352.88 13.0217 351.92C12.4518 350.45 13.0217 348.8 14.3117 347.99ZM103.562 366.62C103.462 366.26 103.422 365.89 103.442 365.51L35.7017 354.29L6.87173 401.72C7.26175 402.02 7.6217 402.41 7.86172 402.86L103.562 366.62ZM107.912 362.75L130.652 319.22C130.112 318.86 129.662 318.35 129.392 317.69C129.292 317.41 129.232 317.14 129.212 316.88L98.3417 317.66L106.412 362.54C106.922 362.48 107.462 362.57 107.912 362.75ZM129.572 314.96L95.6717 292.49C95.3417 292.91 94.8917 293.27 94.3517 293.48C94.2317 293.52 94.1217 293.56 94.0217 293.6L98.2517 317.09L129.182 316.28C129.212 315.8 129.362 315.35 129.572 314.96ZM97.0217 251.33L65.0417 259.76C65.1917 260.69 64.9517 261.62 64.3817 262.31L81.7517 278.78L98.1917 252.68C97.7117 252.35 97.2917 251.9 97.0217 251.33ZM97.0817 248.51L18.7517 194.81C18.5917 194.97 18.4217 195.11 18.2417 195.23L21.9017 200.63L60.2717 257.45C60.3917 257.39 60.5117 257.33 60.6317 257.27C62.3117 256.64 64.2017 257.45 64.8617 259.13C64.8617 259.15 64.8717 259.17 64.8917 259.19L96.8417 250.76C96.6317 249.98 96.7217 249.2 97.0817 248.51ZM14.6417 189.83L0.601746 155.75C-0.418274 156.11 -1.46826 155.93 -2.27826 155.36L-13.2582 181.07L13.4117 191.3C13.6817 190.7 14.1017 190.19 14.6417 189.83ZM-46.7083 98.3897L-63.2683 86.1497L-92.4883 132.26C-92.3083 132.4 -92.1383 132.56 -91.9783 132.74L-46.7683 101.66C-46.8483 101.52 -46.9183 101.38 -46.9783 101.24C-47.3683 100.28 -47.2183 99.2297 -46.7083 98.3897ZM-107.938 55.2797L-94.7383 131.57C-94.1383 131.54 -93.5383 131.66 -92.9983 131.93L-63.7783 85.7897L-106.348 54.3197C-106.678 54.6797 -107.098 54.9797 -107.608 55.1897C-107.708 55.2297 -107.818 55.2597 -107.938 55.2797ZM-77.9683 166.94L-43.1683 170.57C-43.0883 170.23 -42.9683 169.91 -42.8083 169.61L-91.9483 136.88C-92.1683 137.14 -92.4383 137.37 -92.7583 137.57L-77.9683 166.94ZM-77.6383 167.57L-41.0683 240.17C-40.8683 240.11 -40.6583 240.07 -40.4383 240.05L-40.2283 174.47C-41.4283 174.38 -42.5383 173.6 -43.0183 172.4C-43.1683 172.01 -43.2283 171.59 -43.2283 171.2L-77.6383 167.57ZM-36.9283 243.5L0.991699 249.83L15.0917 195.53C14.7317 195.35 14.4017 195.14 14.1317 194.87L-37.5583 241.31C-37.3783 241.55 -37.2383 241.8 -37.1383 242.06C-36.9583 242.54 -36.8983 243.02 -36.9283 243.5ZM-7.49826 284.87C-6.74826 285.14 -6.08826 285.71 -5.69827 286.46L58.7117 261.2C58.5917 260.82 58.5517 260.44 58.5917 260.06L1.44171 250.52L-7.49826 284.87ZM-7.94827 291.08L-1.46826 346.73L14.4017 347.39L-7.70825 291.02C-7.78824 291.04 -7.86826 291.06 -7.94827 291.08ZM-2.0083 347.3L-37.6183 345.77L3.27173 401.57C3.43173 401.47 3.60172 401.39 3.78174 401.33C3.94171 401.27 4.11172 401.22 4.29172 401.18L-2.0083 347.3ZM90.9317 405.05L105.182 368.63C104.582 368.33 104.042 367.82 103.742 367.16L8.19171 403.37L8.07175 403.55C8.13174 403.73 8.16171 403.91 8.16171 404.09L90.9317 405.05ZM141.002 407.21L122.432 385.04L100.742 403.55C100.882 403.77 101.002 404 101.102 404.24C101.252 404.63 101.342 405.02 101.342 405.41L140.132 408.92C140.222 408.26 140.552 407.69 141.002 407.21ZM122.042 384.59L108.482 368.39C108.282 368.55 108.072 368.67 107.852 368.75C107.312 368.96 106.772 369.02 106.262 368.96L99.0617 402.32C99.5417 402.47 99.9917 402.74 100.352 403.1L122.042 384.59ZM122.492 384.2L148.232 362.24C148.112 362.06 148.012 361.86 147.932 361.64C147.852 361.42 147.792 361.21 147.752 361.01L109.892 365.63C109.922 366.53 109.562 367.4 108.932 368.03L122.492 384.2ZM196.682 347.81C196.622 347.3 196.652 346.82 196.802 346.37L135.212 318.08C134.852 318.71 134.282 319.22 133.562 319.49C132.752 319.82 131.912 319.76 131.162 319.46L108.422 363.02C108.962 363.35 109.412 363.89 109.682 364.55C109.702 364.63 109.732 364.72 109.772 364.82L196.682 347.81ZM149.222 357.71L114.962 364.43L147.692 360.41C147.722 359.33 148.292 358.31 149.222 357.71ZM197.012 345.83C197.372 345.17 197.942 344.63 198.692 344.33C199.112 344.18 199.532 344.09 199.952 344.12L202.742 319.16L135.602 316.88C135.582 317.1 135.532 317.32 135.452 317.54L197.012 345.83ZM202.052 344.93L225.692 321.77C225.492 321.51 225.322 321.22 225.182 320.9C225.062 320.58 224.992 320.25 224.972 319.91L203.342 319.19L200.552 344.18C201.092 344.3 201.602 344.57 202.052 344.93ZM230.642 321.86L264.692 358.07L209.642 277.88L227.162 316.64C228.812 316.1 230.612 316.91 231.242 318.53C231.722 319.7 231.422 320.99 230.642 321.86ZM266.192 358.01L251.522 289.55L210.842 276.17C210.662 276.62 210.362 277.01 210.002 277.34L265.592 358.28C265.712 358.22 265.842 358.16 265.982 358.1C266.042 358.08 266.112 358.05 266.192 358.01ZM204.662 275.66L132.662 285.38V313.25C133.622 313.34 134.492 313.85 135.062 314.66L204.872 276.29C204.852 276.23 204.832 276.17 204.812 276.11C204.752 275.97 204.702 275.82 204.662 275.66ZM132.062 285.47L96.3317 290.3C96.3617 290.9 96.2117 291.47 95.9417 291.98L129.842 314.45C130.172 314 130.622 313.67 131.192 313.46C131.472 313.34 131.762 313.27 132.062 313.25V285.47ZM132.062 284.84V217.4C131.742 217.36 131.442 217.28 131.162 217.16L94.8317 287.69C95.4017 288.05 95.8517 288.56 96.1217 289.22C96.1817 289.38 96.2217 289.54 96.2417 289.7L132.062 284.84ZM130.412 216.74L102.332 247.7C102.572 248 102.812 248.33 102.962 248.72C103.592 250.37 102.782 252.26 101.102 252.92C100.682 253.1 100.262 253.16 99.8117 253.16L94.0217 287.27C94.1217 287.31 94.2217 287.35 94.3217 287.39L130.622 216.86C130.562 216.82 130.492 216.78 130.412 216.74ZM98.4617 247.01L52.5617 151.07C51.5717 151.43 50.4917 151.28 49.6517 150.74L18.6017 190.13C18.9317 190.46 19.2017 190.85 19.3817 191.3C19.7717 192.32 19.6217 193.43 19.0817 194.27L97.3217 247.94C97.6217 247.55 98.0117 247.22 98.4617 247.01ZM48.2417 148.61L42.0917 149.15L18.8117 188.9L49.2017 150.38C48.8717 150.05 48.5717 149.66 48.3917 149.21C48.3317 149.01 48.2817 148.81 48.2417 148.61ZM41.3417 149.21L2.76172 152.63C2.73172 153.8 2.13171 154.88 1.08173 155.45L15.1517 189.47C16.0217 189.14 16.9517 189.2 17.7317 189.56L41.3417 149.21ZM41.7017 148.58L68.2517 103.28C68.0517 103.14 67.8717 102.98 67.7117 102.8L2.28174 150.92C2.36172 151.08 2.44174 151.25 2.52173 151.43C2.60175 151.61 2.65173 151.81 2.67175 152.03L41.7017 148.58ZM2.58173 100.55L-40.7683 100.31C-40.8583 101.03 -41.1583 101.75 -41.6983 102.26L-1.91827 149.69C-1.83829 149.65 -1.76828 149.61 -1.70828 149.57C-1.3483 149.45 -0.958282 149.36 -0.598267 149.36L2.58173 100.55ZM-38.5183 48.6497C-38.8383 48.5697 -39.1383 48.4497 -39.4183 48.2897L-63.0283 85.5497L-46.4083 97.8198C-46.0782 97.4597 -45.6883 97.1597 -45.1783 96.9497C-44.7883 96.7997 -44.3383 96.7097 -43.9483 96.7397L-38.5183 48.6497ZM-40.9183 44.8397L-102.088 30.4097L-107.608 49.0397C-106.798 49.3697 -106.138 49.9998 -105.778 50.8698C-105.718 51.0697 -105.668 51.2697 -105.628 51.4698L-40.9783 45.2897C-40.9783 45.1297 -40.9583 44.9797 -40.9183 44.8397ZM-88.8883 -16.2703C-89.4283 -16.4803 -89.8783 -16.8102 -90.2683 -17.2603L-100.888 -10.1203L-143.038 18.2297C-142.958 18.3497 -142.898 18.4698 -142.858 18.5898C-142.648 19.1298 -142.588 19.6998 -142.648 20.2397L-102.508 29.7198L-88.8883 -16.2703ZM-90.5683 -20.8903L-107.908 -32.2603L-143.728 17.3297C-143.588 17.4497 -143.458 17.5797 -143.338 17.7198L-90.5683 -17.7403C-90.6483 -17.8603 -90.7083 -17.9903 -90.7483 -18.1302C-91.1383 -19.0602 -91.0183 -20.0803 -90.5683 -20.8903ZM-78.4483 -74.0803C-78.7183 -74.3802 -78.9583 -74.7402 -79.1383 -75.1603C-79.2783 -75.5203 -79.3483 -75.8803 -79.3483 -76.2403L-159.118 -68.3802C-159.118 -67.8403 -159.268 -67.3003 -159.508 -66.8503L-108.058 -33.0703L-78.4483 -74.0803ZM-133.258 -105.73L-160.168 -70.7203C-159.838 -70.4203 -159.538 -70.0002 -159.358 -69.5503C-159.278 -69.3503 -159.228 -69.1603 -159.208 -68.9803L-79.3183 -76.8403C-79.2583 -77.2303 -79.1383 -77.6202 -78.9283 -77.9803L-133.258 -105.73ZM-133.798 -106L-161.248 -120.04C-161.608 -119.35 -162.208 -118.81 -162.958 -118.51C-163.098 -118.45 -163.248 -118.4 -163.408 -118.36L-162.178 -71.5903C-161.638 -71.5303 -161.128 -71.3802 -160.648 -71.0803L-133.798 -106ZM-166.078 -118.9L-196.228 -88.0303C-196.008 -87.7703 -195.828 -87.4603 -195.688 -87.1003C-195.388 -86.3203 -195.388 -85.5103 -195.658 -84.7903L-174.268 -74.4103L-164.818 -118.36C-165.268 -118.45 -165.688 -118.63 -166.078 -118.9ZM-188.998 -8.05026C-188.838 -8.07025 -188.678 -8.07025 -188.518 -8.05026L-174.388 -73.8102L-195.928 -84.2502C-196.288 -83.6503 -196.828 -83.1703 -197.518 -82.9003C-197.678 -82.8403 -197.848 -82.7903 -198.028 -82.7502L-188.998 -8.05026ZM-111.688 50.5397C-111.608 50.4197 -111.528 50.3097 -111.448 50.2097L-143.638 22.1597C-143.938 22.4597 -144.298 22.6697 -144.718 22.8497C-145.828 23.2697 -147.028 23.0598 -147.928 22.3698L-154.468 29.2097C-154.228 29.4797 -154.018 29.7797 -153.898 30.1397C-153.598 30.8597 -153.598 31.6397 -153.808 32.3297L-111.688 50.5397ZM-147.838 156.8C-147.268 157.07 -146.758 157.52 -146.428 158.12L-97.6183 135.83C-98.1883 134.21 -97.3483 132.38 -95.7283 131.75C-95.6083 131.71 -95.4983 131.67 -95.3983 131.63L-108.598 55.3397C-108.978 55.3797 -109.348 55.3497 -109.708 55.2497L-147.838 156.8ZM-42.2383 239.18L-78.4183 167.42L-146.068 160.34C-146.148 160.72 -146.288 161.07 -146.488 161.39L-42.2383 239.18ZM-10.2582 285.08C-10.1183 285 -9.97827 284.93 -9.83829 284.87C-9.26828 284.63 -8.66827 284.6 -8.12827 284.69L0.781738 250.37L-37.0782 244.04C-37.2283 244.67 -37.5883 245.24 -38.0983 245.69L-10.2582 285.08ZM-37.7683 345.14L-2.09827 346.67L-8.54828 291.14C-8.99826 291.14 -9.44827 291.05 -9.83829 290.9L-37.7683 345.14ZM5.10175 407.57C3.72174 407.63 2.4317 406.85 1.89172 405.5C1.38171 404.18 1.77173 402.77 2.76172 401.87L-37.7383 346.64L-19.1983 447.29C-18.6283 447.23 -18.0883 447.32 -17.5782 447.56L5.10175 407.57ZM96.3317 408.14C95.7617 407.78 95.3117 407.27 95.0417 406.61C94.9417 406.29 94.8717 405.98 94.8317 405.68L91.3517 405.62L72.2117 454.52L96.3317 408.14ZM150.182 363.59C149.582 363.44 149.042 363.14 148.622 362.69L122.912 384.65L141.482 406.82C141.682 406.68 141.902 406.56 142.142 406.46C142.592 406.28 143.072 406.22 143.522 406.25L150.182 363.59ZM190.622 349.58L151.532 357.23C152.612 357.44 153.542 358.13 153.962 359.21L190.622 349.58ZM331.622 317.96C331.562 317.86 331.512 317.75 331.472 317.63C331.232 317 331.202 316.31 331.322 315.71L252.242 289.73L266.822 357.86C267.932 357.71 269.042 358.19 269.732 359.03L331.622 317.96ZM245.192 248.93C244.862 249.35 244.412 249.68 243.872 249.89C243.812 249.91 243.752 249.93 243.692 249.95L252.062 289.04L331.502 315.14C331.562 315 331.642 314.86 331.742 314.72L245.192 248.93ZM210.602 273.14C210.702 273.32 210.792 273.51 210.872 273.71C211.112 274.31 211.142 274.94 211.022 275.54L251.402 288.83L243.092 250.1C242.012 250.22 240.932 249.83 240.242 249.02L210.602 273.14ZM134.732 216.38C134.402 216.71 134.012 216.95 133.562 217.13C133.282 217.25 132.992 217.32 132.692 217.34V284.72L204.602 275.03C204.572 274.28 204.782 273.59 205.202 272.99L134.732 216.38ZM52.3517 144.92L68.4617 104.18L42.4817 148.52L48.2117 148.01C48.2117 146.72 48.9917 145.49 50.2517 145.01C50.9717 144.74 51.6917 144.71 52.3517 144.92ZM7.86172 67.9097C7.50171 68.4497 6.99173 68.8997 6.33173 69.1397C5.97171 69.2897 5.61172 69.3497 5.22174 69.3497L3.2417 99.9797L66.9317 100.34C66.9717 100.02 67.0517 99.7097 67.1717 99.4097L7.86172 67.9097ZM-34.9783 47.1797C-35.3083 47.7797 -35.8783 48.2597 -36.5683 48.5297C-37.0183 48.7097 -37.4683 48.7697 -37.9183 48.7697L-43.3183 96.8297C-42.5983 96.9797 -41.9683 97.3697 -41.4883 97.9097L2.31171 67.6997C2.23172 67.5797 2.17172 67.4497 2.13171 67.3097C1.80173 66.5297 1.83173 65.7197 2.10175 64.9997L-34.9783 47.1797ZM-85.9783 -16.5703C-86.1583 -16.4503 -86.3583 -16.3503 -86.5783 -16.2703C-87.1783 -16.0303 -87.7783 -16.0003 -88.3483 -16.0903L-101.938 29.8698L-40.7683 44.2997C-40.5883 43.8497 -40.3183 43.4297 -39.9283 43.0997L-85.9783 -16.5703ZM-77.1283 -73.2403C-77.4483 -73.3403 -77.7483 -73.4903 -78.0283 -73.6903L-107.608 -32.7403L-90.2683 -21.3703C-89.9383 -21.7903 -89.4883 -22.1203 -88.9783 -22.3303C-88.4383 -22.5103 -87.8983 -22.5703 -87.3582 -22.5103L-77.1283 -73.2403ZM-160.948 -122.02C-160.888 -121.54 -160.918 -121.06 -161.068 -120.61L-133.438 -106.48L-114.958 -130.54C-115.258 -130.84 -115.498 -131.2 -115.678 -131.62C-115.738 -131.78 -115.788 -131.95 -115.828 -132.13L-160.948 -122.02Z" fill="#00A8E8"/>
<g style="mix-blend-mode:screen">
<path d="M305.463 251.78C303.423 255.53 298.713 256.94 294.933 254.9C291.153 252.86 289.773 248.12 291.813 244.37C293.853 240.59 298.563 239.21 302.343 241.25C306.093 243.29 307.503 248 305.463 251.78Z" fill="url(#paint10_radial_83479_2973)"/>
</g>
<g style="mix-blend-mode:screen">
<path d="M21.4216 315.17C19.3816 318.95 14.6716 320.33 10.8916 318.29C7.1416 316.25 5.73161 311.54 7.77161 307.76C9.81161 304.01 14.5216 302.6 18.3016 304.64C22.0816 306.68 23.4616 311.39 21.4216 315.17Z" fill="url(#paint11_radial_83479_2973)"/>
</g>
<g style="mix-blend-mode:screen">
<path d="M21.8729 49.2793C19.8329 53.0293 15.1229 54.4393 11.3429 52.3993C7.56294 50.3593 6.18295 45.6493 8.22295 41.8693C10.2629 38.0893 14.9729 36.7093 18.7529 38.7493C22.5029 40.7893 23.9129 45.4993 21.8729 49.2793Z" fill="url(#paint12_radial_83479_2973)"/>
</g>
<g style="mix-blend-mode:screen">
<path d="M288.603 311.75C287.583 313.64 285.213 314.33 283.353 313.31C281.463 312.29 280.743 309.95 281.793 308.06C282.813 306.17 285.153 305.48 287.043 306.5C288.933 307.52 289.623 309.86 288.603 311.75Z" fill="url(#paint13_radial_83479_2973)"/>
</g>
<g style="mix-blend-mode:screen">
<path d="M26.2206 222.65C25.2006 224.51 22.8306 225.23 20.9706 224.21C19.0806 223.19 18.3906 220.82 19.4106 218.93C20.4306 217.04 22.7706 216.35 24.6606 217.37C26.5506 218.39 27.2406 220.76 26.2206 222.65Z" fill="url(#paint14_radial_83479_2973)"/>
</g>
<g style="mix-blend-mode:screen">
<path d="M86.6406 86.06C85.6206 87.95 83.2506 88.64 81.3606 87.62C79.4706 86.6 78.7806 84.23 79.8006 82.37C80.8206 80.48 83.1906 79.76 85.0806 80.81C86.9406 81.83 87.6606 84.17 86.6406 86.06Z" fill="url(#paint15_radial_83479_2973)"/>
</g>
<g style="mix-blend-mode:screen">
<path d="M182.701 319.609C181.681 321.499 179.341 322.189 177.451 321.169C175.561 320.149 174.871 317.779 175.891 315.889C176.911 314.029 179.251 313.309 181.141 314.329C183.031 315.349 183.721 317.719 182.701 319.609Z" fill="url(#paint16_radial_83479_2973)"/>
</g>
<g style="mix-blend-mode:screen">
<path d="M104.131 190.009C103.111 191.899 100.771 192.589 98.8807 191.569C96.9907 190.549 96.3007 188.179 97.3207 186.289C98.3407 184.429 100.681 183.709 102.571 184.729C104.461 185.749 105.151 188.119 104.131 190.009Z" fill="url(#paint17_radial_83479_2973)"/>
</g>
<g style="mix-blend-mode:screen">
<path d="M124.264 42.9496C123.244 44.8396 120.904 45.5296 119.014 44.5096C117.124 43.4896 116.434 41.1196 117.454 39.2296C118.474 37.3696 120.814 36.6496 122.704 37.6696C124.594 38.6896 125.284 41.0596 124.264 42.9496Z" fill="url(#paint18_radial_83479_2973)"/>
</g>
<g style="mix-blend-mode:screen">
<path d="M121.771 301.88C120.751 303.77 118.411 304.46 116.521 303.44C114.631 302.42 113.941 300.08 114.961 298.19C115.981 296.3 118.351 295.61 120.211 296.63C122.101 297.65 122.791 299.99 121.771 301.88Z" fill="url(#paint19_radial_83479_2973)"/>
</g>
</g>
</g>
</g>
<defs>
<radialGradient id="paint0_radial_83479_2973" cx="0" cy="0" r="1" gradientUnits="userSpaceOnUse" gradientTransform="translate(841.364 80.9337) rotate(-151.539) scale(7.7643)">
<stop stop-color="white"/>
<stop offset="1"/>
</radialGradient>
<radialGradient id="paint1_radial_83479_2973" cx="0" cy="0" r="1" gradientUnits="userSpaceOnUse" gradientTransform="translate(1125.39 17.5289) rotate(-151.539) scale(7.7643)">
<stop stop-color="white"/>
<stop offset="1"/>
</radialGradient>
<radialGradient id="paint2_radial_83479_2973" cx="0" cy="0" r="1" gradientUnits="userSpaceOnUse" gradientTransform="translate(1124.95 283.428) rotate(-151.539) scale(7.7643)">
<stop stop-color="white"/>
<stop offset="1"/>
</radialGradient>
<radialGradient id="paint3_radial_83479_2973" cx="0" cy="0" r="1" gradientUnits="userSpaceOnUse" gradientTransform="translate(854.807 19.0904) rotate(-151.538) scale(3.88202)">
<stop stop-color="white"/>
<stop offset="1"/>
</radialGradient>
<radialGradient id="paint4_radial_83479_2973" cx="0" cy="0" r="1" gradientUnits="userSpaceOnUse" gradientTransform="translate(1117.19 108.214) rotate(-151.538) scale(3.88202)">
<stop stop-color="white"/>
<stop offset="1"/>
</radialGradient>
<radialGradient id="paint5_radial_83479_2973" cx="0" cy="0" r="1" gradientUnits="userSpaceOnUse" gradientTransform="translate(1056.78 244.792) rotate(-151.538) scale(3.88202 3.88202)">
<stop stop-color="white"/>
<stop offset="1"/>
</radialGradient>
<radialGradient id="paint6_radial_83479_2973" cx="0" cy="0" r="1" gradientUnits="userSpaceOnUse" gradientTransform="translate(960.701 11.2509) rotate(-151.538) scale(3.88202)">
<stop stop-color="white"/>
<stop offset="1"/>
</radialGradient>
<radialGradient id="paint7_radial_83479_2973" cx="0" cy="0" r="1" gradientUnits="userSpaceOnUse" gradientTransform="translate(1039.28 140.846) rotate(-151.538) scale(3.88202 3.88202)">
<stop stop-color="#5D59A8"/>
<stop offset="1" stop-color="#F2F2F8"/>
</radialGradient>
<radialGradient id="paint8_radial_83479_2973" cx="0" cy="0" r="1" gradientUnits="userSpaceOnUse" gradientTransform="translate(1019.14 287.909) rotate(-151.538) scale(3.88202)">
<stop stop-color="white"/>
<stop offset="1"/>
</radialGradient>
<radialGradient id="paint9_radial_83479_2973" cx="0" cy="0" r="1" gradientUnits="userSpaceOnUse" gradientTransform="translate(1021.63 28.9617) rotate(-151.538) scale(3.88202)">
<stop stop-color="white"/>
<stop offset="1"/>
</radialGradient>
<radialGradient id="paint10_radial_83479_2973" cx="0" cy="0" r="1" gradientUnits="userSpaceOnUse" gradientTransform="translate(298.636 248.066) rotate(28.4613) scale(7.7643)">
<stop stop-color="white"/>
<stop offset="1"/>
</radialGradient>
<radialGradient id="paint11_radial_83479_2973" cx="0" cy="0" r="1" gradientUnits="userSpaceOnUse" gradientTransform="translate(14.605 311.471) rotate(28.4613) scale(7.7643)">
<stop stop-color="white"/>
<stop offset="1"/>
</radialGradient>
<radialGradient id="paint12_radial_83479_2973" cx="0" cy="0" r="1" gradientUnits="userSpaceOnUse" gradientTransform="translate(15.0473 45.5719) rotate(28.4613) scale(7.7643)">
<stop stop-color="white"/>
<stop offset="1"/>
</radialGradient>
<radialGradient id="paint13_radial_83479_2973" cx="0" cy="0" r="1" gradientUnits="userSpaceOnUse" gradientTransform="translate(285.193 309.91) rotate(28.4624) scale(3.88202)">
<stop stop-color="white"/>
<stop offset="1"/>
</radialGradient>
<radialGradient id="paint14_radial_83479_2973" cx="0" cy="0" r="1" gradientUnits="userSpaceOnUse" gradientTransform="translate(22.8108 220.786) rotate(28.4624) scale(3.88202)">
<stop stop-color="white"/>
<stop offset="1"/>
</radialGradient>
<radialGradient id="paint15_radial_83479_2973" cx="0" cy="0" r="1" gradientUnits="userSpaceOnUse" gradientTransform="translate(83.2182 84.2081) rotate(28.4624) scale(3.88202 3.88202)">
<stop stop-color="white"/>
<stop offset="1"/>
</radialGradient>
<radialGradient id="paint16_radial_83479_2973" cx="0" cy="0" r="1" gradientUnits="userSpaceOnUse" gradientTransform="translate(179.299 317.749) rotate(28.4624) scale(3.88202)">
<stop stop-color="white"/>
<stop offset="1"/>
</radialGradient>
<radialGradient id="paint17_radial_83479_2973" cx="0" cy="0" r="1" gradientUnits="userSpaceOnUse" gradientTransform="translate(100.723 188.154) rotate(28.4624) scale(3.88202 3.88202)">
<stop stop-color="#5D59A8"/>
<stop offset="1" stop-color="#F2F2F8"/>
</radialGradient>
<radialGradient id="paint18_radial_83479_2973" cx="0" cy="0" r="1" gradientUnits="userSpaceOnUse" gradientTransform="translate(120.86 41.0905) rotate(28.4624) scale(3.88202)">
<stop stop-color="white"/>
<stop offset="1"/>
</radialGradient>
<radialGradient id="paint19_radial_83479_2973" cx="0" cy="0" r="1" gradientUnits="userSpaceOnUse" gradientTransform="translate(118.371 300.038) rotate(28.4624) scale(3.88202)">
<stop stop-color="white"/>
<stop offset="1"/>
</radialGradient>
<clipPath id="clip0_83479_2973">
<rect width="1140" height="329" rx="4" fill="white"/>
</clipPath>
</defs>
</svg>
